<svg width="500" height="500" viewBox="0 0 500 500" fill="none" xmlns="http://www.w3.org/2000/svg">
<mask id="mask0" style="mask-type:alpha" maskUnits="userSpaceOnUse" x="39" y="52" width="380" height="370">
<path fill-rule="evenodd" clip-rule="evenodd" d="M39.6475 52.6499H418.48V421.181H39.6475V52.6499Z" fill="white"/>
</mask>
<g mask="url(#mask0)">
<path fill-rule="evenodd" clip-rule="evenodd" d="M418.48 236.915C418.48 338.683 333.675 421.181 229.064 421.181C124.452 421.181 39.6475 338.683 39.6475 236.915C39.6475 135.148 124.452 52.6495 229.064 52.6495C333.675 52.6495 418.48 135.148 418.48 236.915Z" fill="#D6F7F1"/>
</g>
<path fill-rule="evenodd" clip-rule="evenodd" d="M140.323 294.969C141.668 244.409 144.668 110.326 139.771 111.525C137.231 112.147 134.018 120.543 130.565 133.628C132.021 134.174 133.531 134.462 135.147 134.462C133.561 136.545 131.575 137.576 129.453 137.964C128.595 141.41 127.725 145.118 126.849 149.043C130.854 149.892 134.885 150.833 138.744 152.003C134.613 154.506 130.089 154.945 125.536 155.075C124.956 157.804 124.374 160.62 123.793 163.506C126.511 164.089 129.168 165.086 131.551 167.519C128.586 167.519 125.832 167.245 123.018 167.401C122.32 170.95 121.625 174.597 120.934 178.313C124.816 178.445 128.697 179.162 132.579 180.337C128.277 181.279 124.225 182.546 120.075 182.999C119.275 187.406 118.485 191.902 117.709 196.446C120.139 196.529 122.569 196.535 124.872 197.878C122.369 198.243 119.863 198.608 117.28 198.974C116.855 201.484 116.436 204.009 116.022 206.539C121.464 205.897 126.781 204.404 131.551 200.577C131.551 205.299 134.12 207.998 135.662 211.371C128.734 211.371 121.806 212.885 114.878 213.645C114.547 215.733 114.221 217.822 113.898 219.909C118.039 218.954 122.12 218.117 126.413 218.117C122.217 219.62 118.021 220.007 113.825 220.383C113.32 223.657 112.828 226.925 112.349 230.173C118.578 230.361 124.808 230.836 131.037 228.912C125.084 232.429 118.441 232.326 111.907 233.19C111.39 236.745 110.89 240.273 110.409 243.754H131.551H133.606H131.551C131.037 245.778 130.523 248.476 131.037 251.175C123.805 250.743 116.573 251.141 109.341 251.659C108.978 254.405 108.63 257.111 108.297 259.77C112.314 259.271 116.381 259.271 120.247 259.271C116.195 261.044 112.002 262.44 107.815 263.664C107.525 266.038 107.251 268.364 106.988 270.646C114.834 271.243 122.823 270.234 130.523 270.739C130.01 273.438 131.551 277.486 131.037 277.486C122.762 280.59 114.317 280.57 105.897 280.634C105.583 283.685 105.303 286.605 105.057 289.383C111.833 288.9 118.465 286.256 125.386 286.256C118.899 289.095 111.686 288.598 104.969 290.379C104.775 292.611 104.606 294.741 104.462 296.766C116.375 298.159 128.517 293.478 140.323 294.969Z" fill="#21A29A"/>
<path fill-rule="evenodd" clip-rule="evenodd" d="M140.006 292.583C138.661 242.023 135.661 107.94 140.557 109.138C143.098 109.761 146.311 118.157 149.764 131.243C148.308 131.788 146.798 132.076 145.181 132.076C146.768 134.159 148.754 135.19 150.876 135.579C151.734 139.024 152.603 142.732 153.479 146.657C149.474 147.507 145.444 148.447 141.584 149.617C145.716 152.12 150.24 152.558 154.792 152.688C155.373 155.418 155.955 158.234 156.536 161.12C153.817 161.703 151.161 162.7 148.778 165.133C151.743 165.133 154.497 164.858 157.311 165.015C158.009 168.563 158.704 172.211 159.394 175.927C155.513 176.059 151.632 176.776 147.75 177.952C152.052 178.893 156.104 180.16 160.254 180.612C161.054 185.02 161.844 189.516 162.62 194.06C160.189 194.143 157.76 194.149 155.457 195.492C157.96 195.858 160.466 196.222 163.049 196.588C163.473 199.098 163.892 201.622 164.306 204.153C158.865 203.511 153.548 202.018 148.778 198.191C148.778 202.913 146.209 205.612 144.667 208.985C151.595 208.985 158.523 210.499 165.451 211.259C165.781 213.348 166.108 215.436 166.43 217.523C162.29 216.568 158.208 215.732 153.916 215.732C158.111 217.234 162.308 217.621 166.504 217.997C167.009 221.271 167.501 224.539 167.98 227.787C161.751 227.975 155.521 228.451 149.292 226.526C155.245 230.044 161.888 229.94 168.422 230.804C168.939 234.36 169.439 237.887 169.919 241.368H148.778H146.723H148.778C149.292 243.392 149.806 246.09 149.292 248.789C156.523 248.357 163.756 248.755 170.988 249.273C171.351 252.019 171.698 254.725 172.032 257.384C168.015 256.885 163.948 256.885 160.082 256.885C164.134 258.658 168.327 260.054 172.514 261.277C172.803 263.653 173.078 265.978 173.34 268.26C165.495 268.858 157.506 267.848 149.806 268.354C150.319 271.052 148.778 275.1 149.292 275.1C157.567 278.204 166.012 278.184 174.432 278.248C174.746 281.299 175.026 284.219 175.272 286.997C168.496 286.514 161.864 283.87 154.943 283.87C161.43 286.709 168.643 286.212 175.36 287.992C175.553 290.225 175.722 292.355 175.867 294.38C163.954 295.773 151.811 291.092 140.006 292.583Z" fill="#21A29A"/>
<path fill-rule="evenodd" clip-rule="evenodd" d="M392.347 305.101C393.214 263.551 395.148 153.362 391.992 154.348C390.354 154.859 388.283 161.759 386.058 172.513C386.996 172.961 387.969 173.198 389.011 173.198C387.989 174.909 386.708 175.757 385.341 176.076C384.788 178.907 384.227 181.955 383.663 185.18C386.244 185.878 388.842 186.652 391.33 187.613C388.667 189.67 385.752 190.03 382.817 190.137C382.442 192.379 382.067 194.694 381.692 197.066C383.445 197.544 385.157 198.364 386.693 200.364C384.782 200.364 383.007 200.138 381.194 200.267C380.743 203.182 380.296 206.18 379.85 209.234C382.352 209.343 384.854 209.931 387.355 210.898C384.583 211.671 381.971 212.713 379.296 213.084C378.78 216.707 378.271 220.401 377.771 224.135C379.337 224.203 380.905 224.209 382.389 225.313C380.775 225.613 379.16 225.913 377.494 226.213C377.221 228.276 376.951 230.35 376.684 232.43C380.192 231.902 383.618 230.676 386.693 227.53C386.693 231.411 388.35 233.628 389.343 236.401C384.877 236.401 380.413 237.645 375.947 238.269C375.733 239.986 375.523 241.703 375.315 243.418C377.984 242.633 380.615 241.945 383.382 241.945C380.677 243.179 377.973 243.498 375.268 243.807C374.943 246.498 374.626 249.183 374.317 251.852C378.332 252.006 382.347 252.397 386.362 250.816C382.525 253.706 378.243 253.622 374.031 254.331C373.699 257.253 373.376 260.152 373.066 263.013H386.693H388.018H386.693C386.362 264.676 386.031 266.894 386.362 269.111C381.701 268.756 377.039 269.083 372.378 269.509C372.144 271.766 371.92 273.989 371.704 276.175C374.294 275.765 376.916 275.764 379.408 275.764C376.796 277.221 374.093 278.369 371.394 279.374C371.208 281.326 371.03 283.237 370.861 285.112C375.918 285.604 381.067 284.774 386.031 285.189C385.7 287.407 386.693 290.733 386.362 290.733C381.028 293.285 375.585 293.268 370.158 293.32C369.956 295.828 369.775 298.227 369.616 300.511C373.983 300.113 378.258 297.941 382.719 297.941C378.539 300.274 373.89 299.865 369.559 301.328C369.435 303.163 369.326 304.914 369.233 306.577C376.912 307.723 384.738 303.876 392.347 305.101Z" fill="#21A29A"/>
<path fill-rule="evenodd" clip-rule="evenodd" d="M392.143 303.14C391.276 261.591 389.342 151.402 392.498 152.387C394.136 152.898 396.207 159.798 398.433 170.552C397.494 171 396.521 171.237 395.479 171.237C396.501 172.949 397.782 173.796 399.149 174.115C399.702 176.946 400.263 179.994 400.827 183.22C398.246 183.917 395.648 184.691 393.16 185.652C395.823 187.709 398.739 188.069 401.674 188.176C402.047 190.419 402.423 192.733 402.798 195.105C401.045 195.583 399.333 196.403 397.796 198.403C399.708 198.403 401.483 198.178 403.297 198.306C403.747 201.222 404.195 204.219 404.64 207.273C402.138 207.382 399.636 207.971 397.135 208.937C399.907 209.711 402.519 210.752 405.194 211.124C405.71 214.746 406.219 218.44 406.719 222.174C405.153 222.243 403.586 222.248 402.102 223.352C403.715 223.652 405.33 223.952 406.996 224.252C407.27 226.315 407.539 228.39 407.806 230.469C404.299 229.941 400.872 228.715 397.796 225.57C397.796 229.45 396.141 231.668 395.148 234.44C399.613 234.44 404.078 235.685 408.543 236.309C408.757 238.025 408.967 239.742 409.175 241.457C406.506 240.672 403.876 239.984 401.109 239.984C403.813 241.219 406.518 241.537 409.222 241.846C409.547 244.537 409.865 247.222 410.173 249.892C406.159 250.046 402.144 250.436 398.128 248.855C401.965 251.745 406.247 251.661 410.458 252.37C410.791 255.292 411.114 258.191 411.424 261.052H397.796H396.472H397.796C398.128 262.715 398.459 264.933 398.128 267.15C402.79 266.796 407.451 267.122 412.113 267.548C412.346 269.805 412.571 272.029 412.785 274.214C410.197 273.804 407.574 273.803 405.082 273.803C407.695 275.26 410.397 276.408 413.096 277.414C413.283 279.365 413.46 281.276 413.629 283.151C408.572 283.643 403.423 282.813 398.459 283.228C398.791 285.446 397.796 288.773 398.128 288.773C403.462 291.324 408.905 291.307 414.332 291.36C414.534 293.867 414.715 296.267 414.874 298.55C410.507 298.152 406.232 295.98 401.771 295.98C405.952 298.313 410.601 297.905 414.93 299.367C415.055 301.202 415.164 302.953 415.258 304.616C407.578 305.762 399.752 301.915 392.143 303.14Z" fill="#21A29A"/>
<path fill-rule="evenodd" clip-rule="evenodd" d="M94.1035 299.216C95.1513 257.09 97.4874 145.371 93.6745 146.37C91.6952 146.888 89.194 153.884 86.505 164.787C87.6386 165.241 88.8144 165.481 90.0735 165.481C88.8378 167.217 87.2915 168.076 85.6392 168.399C84.971 171.27 84.2937 174.36 83.6118 177.63C86.7299 178.338 89.8687 179.122 92.8743 180.096C89.6575 182.182 86.1345 182.547 82.5894 182.656C82.137 184.929 81.6839 187.276 81.2315 189.681C83.3479 190.166 85.4169 190.997 87.2726 193.025C84.9632 193.025 82.8188 192.796 80.6277 192.926C80.0843 195.882 79.5428 198.921 79.0053 202.018C82.0278 202.128 85.0503 202.725 88.0728 203.705C84.7227 204.49 81.5676 205.545 78.3358 205.922C77.7124 209.595 77.0975 213.34 76.493 217.126C78.3858 217.196 80.278 217.2 82.0713 218.32C80.1226 218.624 78.1713 218.928 76.1589 219.232C75.8287 221.325 75.5024 223.427 75.18 225.536C79.4167 225.001 83.5579 223.758 87.2726 220.568C87.2726 224.503 89.2733 226.752 90.4739 229.562C85.0789 229.562 79.6839 230.824 74.2895 231.457C74.0315 233.197 73.7773 234.938 73.5258 236.676C76.7504 235.881 79.9283 235.183 83.2712 235.183C80.0043 236.435 76.7368 236.758 73.4692 237.071C73.076 239.799 72.6925 242.521 72.3194 245.228C77.1703 245.384 82.0213 245.781 86.8722 244.177C82.2364 247.108 77.0637 247.022 71.9755 247.741C71.5725 250.704 71.1832 253.643 70.8088 256.544H87.2726H88.8729H87.2726C86.8722 258.23 86.4725 260.478 86.8722 262.726C81.2406 262.368 75.609 262.698 69.9768 263.13C69.6947 265.418 69.4236 267.673 69.1636 269.888C72.2914 269.472 75.4595 269.472 78.4703 269.472C75.3146 270.95 72.049 272.113 68.7886 273.132C68.563 275.111 68.3492 277.049 68.1444 278.95C74.2544 279.448 80.4756 278.607 86.4725 279.028C86.0727 281.276 87.2726 284.649 86.8722 284.649C80.4281 287.235 73.8521 287.219 67.2949 287.272C67.0505 289.815 66.8327 292.247 66.641 294.562C71.917 294.159 77.0819 291.956 82.4711 291.956C77.4199 294.322 71.8033 293.908 66.5727 295.391C66.4219 297.251 66.29 299.027 66.1769 300.714C75.455 301.875 84.9105 297.974 94.1035 299.216Z" fill="#00652E"/>
<path fill-rule="evenodd" clip-rule="evenodd" d="M93.8568 297.228C92.809 255.101 90.4729 143.383 94.2858 144.382C96.2651 144.9 98.7663 151.896 101.455 162.799C100.322 163.253 99.1459 163.493 97.8868 163.493C99.1225 165.229 100.669 166.088 102.321 166.412C102.989 169.282 103.667 172.372 104.348 175.642C101.23 176.35 98.0916 177.134 95.086 178.108C98.3028 180.194 101.826 180.559 105.371 180.667C105.823 182.942 106.276 185.288 106.729 187.693C104.612 188.178 102.543 189.009 100.688 191.037C102.997 191.037 105.141 190.808 107.333 190.939C107.876 193.894 108.417 196.933 108.955 200.03C105.933 200.14 102.91 200.737 99.8875 201.717C103.238 202.502 106.393 203.557 109.625 203.934C110.248 207.607 110.863 211.352 111.467 215.138C109.574 215.208 107.682 215.212 105.889 216.332C107.838 216.636 109.789 216.94 111.801 217.245C112.132 219.337 112.458 221.439 112.78 223.548C108.544 223.013 104.402 221.769 100.688 218.581C100.688 222.515 98.687 224.763 97.4864 227.574C102.881 227.574 108.276 228.836 113.671 229.469C113.929 231.209 114.183 232.949 114.435 234.689C111.21 233.893 108.032 233.195 104.689 233.195C107.956 234.447 111.224 234.769 114.492 235.083C114.884 237.811 115.268 240.534 115.641 243.24C110.79 243.396 105.939 243.793 101.088 242.189C105.724 245.12 110.897 245.034 115.985 245.753C116.388 248.716 116.777 251.655 117.152 254.555H100.688H99.0874H100.688C101.088 256.242 101.488 258.491 101.088 260.739C106.72 260.379 112.351 260.71 117.984 261.142C118.266 263.43 118.537 265.685 118.797 267.901C115.669 267.485 112.501 267.484 109.49 267.484C112.646 268.962 115.911 270.125 119.172 271.144C119.397 273.123 119.611 275.06 119.816 276.962C113.706 277.46 107.485 276.619 101.488 277.04C101.888 279.288 100.688 282.661 101.088 282.661C107.532 285.248 114.108 285.231 120.665 285.284C120.91 287.826 121.128 290.259 121.319 292.574C116.043 292.172 110.878 289.969 105.489 289.969C110.54 292.334 116.157 291.92 121.388 293.403C121.538 295.264 121.67 297.039 121.783 298.726C112.505 299.886 103.05 295.986 93.8568 297.228Z" fill="#00652E"/>
<path fill-rule="evenodd" clip-rule="evenodd" d="M119.306 322.438C120.335 291.136 122.63 208.126 118.884 208.868C116.94 209.253 114.481 214.451 111.839 222.552C112.953 222.89 114.108 223.068 115.346 223.068C114.132 224.358 112.612 224.996 110.989 225.236C110.332 227.369 109.666 229.665 108.997 232.096C112.061 232.621 115.145 233.204 118.098 233.928C114.937 235.478 111.475 235.749 107.992 235.829C107.548 237.519 107.102 239.263 106.658 241.049C108.737 241.41 110.77 242.028 112.594 243.534C110.325 243.534 108.217 243.364 106.065 243.461C105.531 245.657 104.998 247.915 104.471 250.216C107.44 250.298 110.41 250.742 113.38 251.47C110.089 252.053 106.988 252.837 103.813 253.117C103.201 255.846 102.596 258.629 102.002 261.442C103.862 261.494 105.721 261.498 107.483 262.329C105.568 262.555 103.651 262.781 101.674 263.007C101.349 264.562 101.029 266.124 100.712 267.691C104.875 267.293 108.944 266.369 112.594 264C112.594 266.924 114.559 268.594 115.739 270.683C110.438 270.683 105.138 271.62 99.8368 272.09C99.5833 273.383 99.333 274.676 99.0867 275.969C102.255 275.377 105.378 274.859 108.662 274.859C105.452 275.789 102.241 276.029 99.0308 276.262C98.6447 278.289 98.2677 280.311 97.9011 282.323C102.668 282.439 107.434 282.733 112.2 281.542C107.645 283.72 102.563 283.656 97.5631 284.19C97.1672 286.392 96.785 288.575 96.4171 290.731H112.594H114.166H112.594C112.2 291.983 111.807 293.655 112.2 295.325C106.667 295.058 101.134 295.304 95.5994 295.625C95.3225 297.324 95.0554 298.999 94.8006 300.647C97.8738 300.337 100.987 300.337 103.945 300.337C100.844 301.434 97.6352 302.3 94.432 303.057C94.2104 304.527 94.0004 305.967 93.7996 307.379C99.8023 307.749 105.915 307.124 111.807 307.438C111.415 309.108 112.594 311.614 112.2 311.614C105.869 313.536 99.4071 313.523 92.965 313.563C92.7245 315.452 92.51 317.259 92.3215 318.98C97.5059 318.681 102.581 317.043 107.876 317.043C102.913 318.801 97.3941 318.494 92.2545 319.595C92.1063 320.978 91.977 322.297 91.8658 323.551C100.982 324.413 110.273 321.515 119.306 322.438Z" fill="#4AAA2B"/>
<path fill-rule="evenodd" clip-rule="evenodd" d="M119.063 320.961C118.034 289.659 115.739 206.648 119.485 207.391C121.429 207.775 123.887 212.974 126.529 221.075C125.415 221.413 124.26 221.591 123.023 221.591C124.237 222.881 125.757 223.519 127.38 223.759C128.037 225.892 128.702 228.188 129.372 230.618C126.308 231.144 123.224 231.727 120.271 232.451C123.432 234 126.893 234.271 130.377 234.352C130.821 236.041 131.266 237.785 131.711 239.572C129.631 239.933 127.599 240.55 125.775 242.057C128.044 242.057 130.151 241.887 132.304 241.984C132.838 244.18 133.37 246.438 133.898 248.739C130.928 248.821 127.959 249.264 124.989 249.992C128.28 250.575 131.38 251.36 134.556 251.64C135.168 254.369 135.773 257.152 136.366 259.965C134.507 260.017 132.648 260.021 130.886 260.852C132.8 261.078 134.717 261.304 136.695 261.53C137.02 263.085 137.34 264.647 137.657 266.214C133.493 265.816 129.425 264.892 125.775 262.523C125.775 265.447 123.809 267.117 122.63 269.206C127.931 269.206 133.231 270.142 138.532 270.613C138.786 271.906 139.035 273.199 139.282 274.491C136.114 273.9 132.991 273.382 129.706 273.382C132.917 274.312 136.127 274.552 139.338 274.785C139.724 276.812 140.101 278.834 140.467 280.846C135.701 280.962 130.934 281.256 126.168 280.065C130.723 282.243 135.806 282.178 140.805 282.713C141.202 284.915 141.584 287.098 141.952 289.254H125.775H124.202H125.775C126.168 290.506 126.561 292.177 126.168 293.848C131.702 293.581 137.235 293.826 142.769 294.147C143.046 295.847 143.313 297.522 143.568 299.169C140.495 298.86 137.382 298.86 134.424 298.86C137.525 299.957 140.733 300.822 143.937 301.58C144.159 303.05 144.369 304.49 144.569 305.902C138.567 306.272 132.453 305.647 126.561 305.961C126.954 307.631 125.775 310.137 126.168 310.137C132.5 312.059 138.962 312.046 145.404 312.086C145.644 313.975 145.859 315.782 146.047 317.503C140.863 317.204 135.788 315.566 130.492 315.566C135.456 317.324 140.974 317.017 146.114 318.118C146.263 319.501 146.392 320.82 146.502 322.073C137.386 322.936 128.096 320.038 119.063 320.961Z" fill="#4AAA2B"/>
<path fill-rule="evenodd" clip-rule="evenodd" d="M240.582 310.214C241.7 260.989 244.193 130.444 240.125 131.612C238.013 132.217 235.343 140.392 232.474 153.132C233.684 153.663 234.938 153.944 236.282 153.944C234.964 155.972 233.313 156.975 231.551 157.354C230.837 160.708 230.115 164.318 229.387 168.14C232.715 168.967 236.063 169.882 239.27 171.021C235.838 173.459 232.078 173.885 228.296 174.012C227.813 176.669 227.33 179.411 226.847 182.221C229.106 182.788 231.313 183.759 233.293 186.128C230.83 186.128 228.541 185.861 226.203 186.013C225.623 189.468 225.045 193.018 224.472 196.637C227.697 196.766 230.923 197.463 234.148 198.608C230.573 199.525 227.206 200.759 223.758 201.199C223.093 205.491 222.436 209.867 221.791 214.291C223.811 214.372 225.83 214.378 227.743 215.686C225.664 216.041 223.582 216.397 221.435 216.753C221.082 219.197 220.735 221.654 220.391 224.118C224.911 223.493 229.329 222.04 233.293 218.313C233.293 222.911 235.428 225.539 236.709 228.823C230.953 228.823 225.196 230.297 219.44 231.036C219.165 233.07 218.893 235.104 218.625 237.136C222.066 236.206 225.457 235.391 229.024 235.391C225.537 236.854 222.051 237.231 218.565 237.597C218.145 240.785 217.736 243.966 217.338 247.128C222.514 247.311 227.691 247.774 232.867 245.901C227.92 249.325 222.4 249.225 216.971 250.065C216.541 253.528 216.126 256.961 215.726 260.351H233.293H235.001H233.293C232.867 262.321 232.44 264.948 232.867 267.576C226.858 267.156 220.848 267.543 214.839 268.047C214.537 270.721 214.248 273.355 213.971 275.944C217.308 275.459 220.688 275.458 223.901 275.458C220.534 277.185 217.049 278.544 213.57 279.735C213.33 282.047 213.102 284.311 212.884 286.533C219.403 287.115 226.041 286.132 232.44 286.624C232.013 289.252 233.293 293.193 232.867 293.193C225.99 296.215 218.973 296.196 211.977 296.258C211.716 299.228 211.483 302.071 211.278 304.776C216.909 304.305 222.42 301.731 228.171 301.731C222.78 304.495 216.788 304.012 211.206 305.745C211.045 307.918 210.905 309.992 210.784 311.963C220.684 313.32 230.773 308.763 240.582 310.214Z" fill="#4AAA2B"/>
<path fill-rule="evenodd" clip-rule="evenodd" d="M240.319 307.892C239.201 258.666 236.709 128.121 240.777 129.288C242.888 129.894 245.558 138.069 248.428 150.809C247.217 151.34 245.963 151.62 244.619 151.62C245.937 153.648 247.588 154.653 249.351 155.03C250.064 158.385 250.786 161.995 251.514 165.817C248.186 166.643 244.838 167.56 241.631 168.699C245.063 171.135 248.822 171.562 252.605 171.689C253.088 174.346 253.572 177.088 254.054 179.898C251.795 180.465 249.588 181.436 247.608 183.806C250.071 183.806 252.36 183.538 254.698 183.69C255.278 187.145 255.856 190.696 256.429 194.314C253.204 194.443 249.978 195.141 246.754 196.285C250.328 197.202 253.695 198.435 257.144 198.876C257.808 203.167 258.465 207.545 259.11 211.968C257.09 212.05 255.071 212.055 253.158 213.363C255.237 213.719 257.319 214.074 259.466 214.429C259.819 216.874 260.167 219.331 260.51 221.795C255.99 221.17 251.572 219.717 247.608 215.991C247.608 220.589 245.473 223.215 244.192 226.5C249.949 226.5 255.705 227.974 261.461 228.714C261.736 230.747 262.008 232.781 262.276 234.813C258.835 233.883 255.444 233.068 251.877 233.068C255.364 234.531 258.85 234.908 262.336 235.274C262.756 238.462 263.165 241.643 263.563 244.806C258.387 244.988 253.211 245.451 248.034 243.577C252.981 247.002 258.501 246.902 263.93 247.742C264.36 251.204 264.776 254.638 265.175 258.028H247.608H245.9H247.608C248.034 259.998 248.461 262.626 248.034 265.253C254.044 264.833 260.053 265.22 266.062 265.725C266.364 268.398 266.654 271.032 266.93 273.621C263.593 273.135 260.212 273.135 257 273.135C260.367 274.862 263.852 276.22 267.331 277.412C267.571 279.724 267.799 281.988 268.017 284.21C261.498 284.792 254.86 283.809 248.461 284.301C248.889 286.928 247.608 290.87 248.034 290.87C254.911 293.892 261.928 293.872 268.924 293.935C269.185 296.905 269.418 299.748 269.623 302.453C263.992 301.982 258.481 299.408 252.731 299.408C258.121 302.172 264.113 301.689 269.695 303.421C269.856 305.595 269.996 307.67 270.117 309.641C260.217 310.997 250.129 306.44 240.319 307.892Z" fill="#4AAA2B"/>
<path fill-rule="evenodd" clip-rule="evenodd" d="M218.898 296.545C219.606 268.722 221.186 194.938 218.608 195.598C217.27 195.94 215.578 200.561 213.759 207.761C214.525 208.062 215.321 208.22 216.172 208.22C215.336 209.366 214.291 209.934 213.173 210.148C212.721 212.043 212.263 214.084 211.802 216.244C213.912 216.711 216.034 217.229 218.066 217.872C215.891 219.25 213.508 219.491 211.111 219.563C210.805 221.064 210.498 222.615 210.192 224.203C211.624 224.523 213.023 225.072 214.278 226.411C212.716 226.411 211.266 226.26 209.784 226.346C209.417 228.298 209.051 230.305 208.688 232.35C210.731 232.424 212.775 232.818 214.82 233.465C212.554 233.982 210.42 234.68 208.234 234.93C207.813 237.355 207.397 239.829 206.988 242.329C208.268 242.375 209.548 242.378 210.76 243.118C209.443 243.318 208.123 243.519 206.762 243.72C206.539 245.101 206.318 246.49 206.101 247.883C208.966 247.53 211.766 246.709 214.278 244.602C214.278 247.201 215.631 248.686 216.443 250.543C212.794 250.543 209.146 251.375 205.497 251.793C205.323 252.942 205.152 254.092 204.981 255.241C207.162 254.715 209.312 254.255 211.572 254.255C209.362 255.081 207.153 255.295 204.943 255.501C204.677 257.303 204.418 259.101 204.166 260.889C207.446 260.992 210.727 261.254 214.008 260.194C210.872 262.131 207.374 262.074 203.933 262.548C203.66 264.505 203.397 266.446 203.144 268.362H214.278H215.36H214.278C214.008 269.475 213.737 270.961 214.008 272.446C210.199 272.208 206.39 272.427 202.581 272.712C202.39 274.223 202.207 275.712 202.031 277.176C204.147 276.901 206.289 276.901 208.325 276.901C206.191 277.876 203.982 278.645 201.777 279.318C201.625 280.625 201.48 281.905 201.343 283.16C205.474 283.489 209.681 282.934 213.737 283.212C213.466 284.697 214.278 286.924 214.008 286.924C209.65 288.633 205.202 288.621 200.767 288.657C200.602 290.336 200.455 291.942 200.325 293.471C203.894 293.205 207.386 291.751 211.031 291.751C207.615 293.313 203.816 293.039 200.279 294.018C200.177 295.248 200.088 296.42 200.011 297.534C206.286 298.301 212.681 295.725 218.898 296.545Z" fill="#00652E"/>
<path fill-rule="evenodd" clip-rule="evenodd" d="M218.731 295.232C218.023 267.41 216.442 193.625 219.021 194.285C220.359 194.627 222.051 199.248 223.87 206.449C223.103 206.749 222.308 206.907 221.457 206.907C222.292 208.053 223.338 208.621 224.456 208.834C224.907 210.73 225.366 212.771 225.827 214.931C223.717 215.398 221.595 215.916 219.562 216.56C221.738 217.937 224.121 218.178 226.518 218.25C226.824 219.752 227.13 221.301 227.437 222.89C226.005 223.21 224.606 223.759 223.351 225.099C224.912 225.099 226.363 224.947 227.845 225.033C228.212 226.986 228.578 228.993 228.941 231.038C226.898 231.111 224.853 231.505 222.809 232.152C225.075 232.67 227.208 233.367 229.394 233.616C229.816 236.041 230.232 238.515 230.64 241.016C229.361 241.062 228.081 241.065 226.868 241.804C228.186 242.005 229.506 242.206 230.867 242.407C231.09 243.789 231.311 245.178 231.528 246.57C228.663 246.217 225.863 245.396 223.351 243.29C223.351 245.888 221.997 247.373 221.186 249.229C224.835 249.229 228.482 250.063 232.131 250.481C232.306 251.63 232.477 252.78 232.648 253.928C230.466 253.402 228.317 252.941 226.057 252.941C228.266 253.768 230.476 253.981 232.686 254.188C232.951 255.99 233.211 257.788 233.463 259.576C230.183 259.679 226.902 259.941 223.621 258.882C226.757 260.817 230.255 260.76 233.695 261.235C233.968 263.193 234.232 265.133 234.485 267.05H223.351H222.268H223.351C223.621 268.162 223.891 269.648 223.621 271.133C227.43 270.896 231.238 271.114 235.047 271.399C235.239 272.91 235.422 274.399 235.597 275.862C233.482 275.588 231.34 275.587 229.304 275.587C231.437 276.564 233.646 277.332 235.851 278.005C236.004 279.312 236.149 280.592 236.286 281.848C232.155 282.176 227.947 281.621 223.891 281.899C224.163 283.384 223.351 285.611 223.621 285.611C227.979 287.32 232.427 287.309 236.862 287.344C237.026 289.022 237.174 290.629 237.304 292.159C233.736 291.892 230.242 290.437 226.598 290.437C230.014 292 233.812 291.726 237.35 292.706C237.452 293.934 237.541 295.108 237.618 296.221C231.342 296.987 224.948 294.411 218.731 295.232Z" fill="#00652E"/>
<path fill-rule="evenodd" clip-rule="evenodd" d="M363.781 300.729C365.016 250.688 367.769 117.981 363.276 119.167C360.944 119.784 357.996 128.094 354.827 141.045C356.163 141.585 357.549 141.87 359.032 141.87C357.576 143.931 355.753 144.952 353.807 145.336C353.019 148.746 352.221 152.417 351.418 156.301C355.093 157.142 358.791 158.073 362.333 159.231C358.542 161.709 354.391 162.142 350.213 162.271C349.68 164.972 349.146 167.759 348.613 170.616C351.107 171.192 353.545 172.179 355.732 174.588C353.012 174.588 350.484 174.316 347.902 174.471C347.261 177.983 346.623 181.592 345.99 185.271C349.552 185.402 353.114 186.111 356.675 187.274C352.727 188.207 349.009 189.46 345.2 189.908C344.467 194.27 343.741 198.72 343.029 203.217C345.26 203.3 347.49 203.305 349.603 204.635C347.306 204.997 345.007 205.357 342.636 205.719C342.246 208.204 341.861 210.702 341.482 213.207C346.475 212.571 351.355 211.094 355.732 207.306C355.732 211.98 358.089 214.651 359.504 217.99C353.147 217.99 346.789 219.488 340.432 220.24C340.128 222.307 339.828 224.375 339.532 226.44C343.333 225.494 347.078 224.666 351.017 224.666C347.166 226.154 343.316 226.536 339.466 226.909C339.003 230.15 338.551 233.383 338.111 236.598C343.828 236.784 349.544 237.255 355.261 235.35C349.797 238.831 343.701 238.729 337.706 239.584C337.231 243.103 336.772 246.594 336.331 250.04H355.732H357.618H355.732C355.261 252.043 354.789 254.714 355.261 257.385C348.624 256.958 341.988 257.351 335.351 257.864C335.018 260.581 334.698 263.259 334.392 265.891C338.078 265.398 341.811 265.397 345.359 265.397C341.641 267.152 337.792 268.534 333.95 269.745C333.684 272.096 333.433 274.397 333.192 276.656C340.391 277.247 347.722 276.248 354.789 276.748C354.317 279.419 355.732 283.426 355.261 283.426C347.667 286.498 339.917 286.478 332.19 286.542C331.903 289.561 331.645 292.451 331.419 295.2C337.637 294.722 343.724 292.105 350.074 292.105C344.121 294.916 337.503 294.424 331.339 296.185C331.161 298.395 331.006 300.504 330.873 302.507C341.806 303.886 352.948 299.253 363.781 300.729Z" fill="#043003"/>
<path fill-rule="evenodd" clip-rule="evenodd" d="M363.491 298.368C362.257 248.327 359.504 115.62 363.996 116.806C366.329 117.422 369.276 125.733 372.445 138.684C371.109 139.224 369.724 139.509 368.24 139.509C369.696 141.57 371.519 142.59 373.466 142.975C374.253 146.385 375.051 150.055 375.855 153.94C372.18 154.78 368.481 155.712 364.94 156.87C368.731 159.347 372.882 159.78 377.059 159.909C377.592 162.61 378.127 165.398 378.66 168.254C376.166 168.831 373.728 169.818 371.541 172.226C374.261 172.226 376.789 171.955 379.371 172.109C380.011 175.621 380.649 179.231 381.282 182.909C377.721 183.04 374.159 183.75 370.598 184.913C374.545 185.845 378.263 187.099 382.072 187.547C382.806 191.909 383.531 196.358 384.243 200.856C382.012 200.938 379.783 200.944 377.67 202.274C379.967 202.635 382.266 202.996 384.637 203.358C385.026 205.842 385.411 208.341 385.791 210.846C380.798 210.21 375.918 208.733 371.541 204.944C371.541 209.618 369.183 212.289 367.768 215.628C374.125 215.628 380.483 217.126 386.841 217.879C387.145 219.946 387.444 222.013 387.74 224.079C383.94 223.133 380.194 222.305 376.255 222.305C380.106 223.792 383.956 224.175 387.807 224.548C388.27 227.788 388.722 231.022 389.161 234.237C383.445 234.423 377.728 234.894 372.012 232.989C377.475 236.47 383.571 236.368 389.567 237.223C390.042 240.742 390.501 244.233 390.941 247.678H371.541H369.654H371.541C372.012 249.682 372.483 252.353 372.012 255.023C378.648 254.596 385.285 254.99 391.922 255.502C392.254 258.22 392.574 260.898 392.88 263.53C389.194 263.037 385.461 263.036 381.914 263.036C385.632 264.791 389.48 266.173 393.322 267.384C393.588 269.734 393.84 272.036 394.081 274.294C386.881 274.885 379.55 273.886 372.483 274.386C372.955 277.058 371.541 281.064 372.012 281.064C379.606 284.136 387.356 284.116 395.083 284.18C395.37 287.199 395.627 290.09 395.853 292.839C389.636 292.361 383.549 289.744 377.199 289.744C383.151 292.554 389.77 292.062 395.933 293.824C396.112 296.033 396.267 298.142 396.4 300.146C385.467 301.525 374.324 296.892 363.491 298.368Z" fill="#043003"/>
<path fill-rule="evenodd" clip-rule="evenodd" d="M51.7161 296.129C57.4003 294.926 420.48 282.516 420.48 299.153C420.48 315.791 373.456 321.085 394.905 333.941C416.354 346.797 481.528 358.897 445.229 373.267C408.931 387.635 421.305 395.198 388.306 413.348C355.306 431.498 383.356 429.986 290.958 436.791C198.561 443.598 54.1913 443.598 59.9659 417.885C65.7405 392.173 77.2903 390.66 58.3162 367.216C39.3414 343.772 56.6658 341.504 55.0161 331.673C53.3664 321.841 -1.90765 307.472 51.7161 296.129Z" fill="#AFD400"/>
<path fill-rule="evenodd" clip-rule="evenodd" d="M77.134 421.182C71.284 414.357 36.1859 336.361 28.3859 353.911C20.5866 371.459 55.6846 402.658 55.6846 402.658C55.6846 402.658 6.93723 376.334 13.7622 396.808C20.5866 417.282 77.134 421.182 77.134 421.182Z" fill="#43AC6C"/>
<path fill-rule="evenodd" clip-rule="evenodd" d="M394.267 314.531C395.567 317.781 459.267 314.531 467.717 321.031C476.167 327.531 374.767 332.081 375.417 338.581" fill="#AFD400"/>
<mask id="mask1" style="mask-type:alpha" maskUnits="userSpaceOnUse" x="13" y="52" width="474" height="396">
<path fill-rule="evenodd" clip-rule="evenodd" d="M13 447.797H486.961V52.65H13V447.797Z" fill="white"/>
</mask>
<g mask="url(#mask1)">
<path fill-rule="evenodd" clip-rule="evenodd" d="M321.034 325.58H323.634V299.58H321.034V325.58Z" fill="#1E1210"/>
<path fill-rule="evenodd" clip-rule="evenodd" d="M337.934 325.58H340.534V299.58H337.934V325.58Z" fill="#1E1210"/>
<path fill-rule="evenodd" clip-rule="evenodd" d="M425.034 325.147H427.634V299.147H425.034V325.147Z" fill="#1E1210"/>
<path fill-rule="evenodd" clip-rule="evenodd" d="M441.934 325.147H444.534V299.147H441.934V325.147Z" fill="#1E1210"/>
<path fill-rule="evenodd" clip-rule="evenodd" d="M338.367 291.347H342.267V251.48H338.367V291.347Z" fill="#1E1210"/>
<path fill-rule="evenodd" clip-rule="evenodd" d="M436.734 290.914H440.634V251.048H436.734V290.914Z" fill="#1E1210"/>
<path fill-rule="evenodd" clip-rule="evenodd" d="M322.982 283.547H455.366V257.547H322.982V283.547Z" fill="#D38B41"/>
<path fill-rule="evenodd" clip-rule="evenodd" d="M313.667 299.58H446.917V290.48H313.667V299.58Z" fill="#D38B41"/>
<path fill-rule="evenodd" clip-rule="evenodd" d="M315.617 327.53H446.917V323.63H315.617V327.53Z" fill="#1E1210"/>
<path fill-rule="evenodd" clip-rule="evenodd" d="M199.782 381.664C199.782 381.664 158.075 381.966 146.077 378.032C134.079 374.098 130.08 370.466 156.933 369.256C183.785 368.046 205.495 370.165 214.636 366.533C223.778 362.902 224.349 362.599 237.489 364.112C250.63 365.625 255.2 366.836 276.34 365.322C297.478 363.809 301.478 365.625 335.757 365.322C370.037 365.02 384.32 370.769 360.896 372.888C337.471 375.006 319.761 374.098 305.477 378.638C291.194 383.177 284.909 379.545 259.2 381.361C233.49 383.177 219.778 383.479 214.065 381.664C208.351 379.848 199.782 381.664 199.782 381.664Z" fill="#C8A06A"/>
<path fill-rule="evenodd" clip-rule="evenodd" d="M294.033 213.044C290.961 210.629 292.189 208.544 289.323 209.313C287.953 209.68 285.461 209.57 283.231 209.356C284.142 216.534 284.322 223.904 277.959 226.87C271.66 229.253 267.374 222.653 265.097 216.823C261.588 220.61 256.464 225.639 257.074 227.308C257.995 229.832 266.698 259.899 267.312 260.887C267.926 261.874 272.639 262.752 272.434 265.275C272.381 265.928 273.341 266.789 273.56 267.746C284.145 271.898 290.514 270.788 301.106 266.812C301.15 264.449 298.009 255.192 297.102 251.011C296.078 246.292 295.157 232.464 295.157 232.464C295.157 232.464 294.44 231.038 294.849 230.598C294.997 230.44 296.303 231.269 297.933 232.41C298.236 227.574 299.238 222.739 299.769 217.903C297.579 215.993 295.32 214.056 294.033 213.044Z" fill="#F2AD34"/>
<path fill-rule="evenodd" clip-rule="evenodd" d="M308.83 225.17C308.706 224.943 308.558 224.692 308.366 224.456C307.649 223.578 306.42 224.346 306.113 224.456C305.806 224.566 305.703 223.139 305.703 223.139C305.703 223.139 302.803 220.548 299.769 217.902C299.238 222.738 298.235 227.574 297.932 232.41C300.808 234.424 304.694 237.416 305.021 237.696C305.347 237.976 305.755 238.387 306.246 238.452C305.934 233.995 307.006 229.359 308.83 225.17Z" fill="#DDCDB4"/>
<path fill-rule="evenodd" clip-rule="evenodd" d="M277.959 226.87C284.321 223.904 284.143 216.534 283.231 209.356C280.796 209.122 278.676 208.764 278.676 208.764L268.233 212.605C268.268 213.273 266.894 214.886 265.098 216.823C267.373 222.653 271.661 229.253 277.959 226.87Z" fill="#822405"/>
<path fill-rule="evenodd" clip-rule="evenodd" d="M324.131 218.969C324.439 218.749 324.336 217.762 324.542 216.994C324.746 216.225 325.361 215.896 325.463 214.689C325.565 213.482 324.951 213.263 324.951 212.934C324.951 212.604 325.258 211.727 324.951 210.63C324.644 209.532 321.675 209.642 321.265 209.532C320.855 209.422 321.777 207.337 320.651 207.008C319.525 206.679 319.217 208.983 318.809 208.874C318.398 208.764 318.603 210.081 318.603 210.081C318.603 210.081 317.784 209.971 317.17 210.191C316.556 210.41 317.068 211.507 317.068 211.507C317.068 211.507 316.658 212.056 315.941 212.275C315.225 212.495 315.327 213.482 315.327 213.482L315.839 214.141C315.839 214.141 314.713 215.238 314.611 215.568C314.508 215.896 315.635 217.213 315.635 217.213L316.453 219.408C316.453 219.408 314.736 220.117 313.27 221.436C314.426 223.365 316.125 226.464 317.587 228.027C318.194 227.283 319.509 225.744 319.832 225.224C321.88 221.932 323.825 219.188 324.131 218.969Z" fill="#B0AEB5"/>
<path fill-rule="evenodd" clip-rule="evenodd" d="M309.696 225.663C309.323 226.224 309.167 225.788 308.83 225.17C307.007 229.359 305.934 233.995 306.246 238.452C306.528 238.49 306.836 238.416 307.171 238.135C307.947 237.489 314.357 231.114 317.587 227.149C316.125 225.585 314.836 223.804 313.679 221.876C311.939 223.44 309.974 225.246 309.696 225.663Z" fill="#A13204"/>
<path fill-rule="evenodd" clip-rule="evenodd" d="M264.855 205.362C264.91 205.686 265.571 207.228 265.674 208.545C265.711 209.019 268.879 215.422 270.588 216.665C273.455 218.75 274.683 218.64 276.014 217.981C277.345 217.323 279.29 213.812 279.29 211.398C279.29 208.983 279.44 204.474 279.543 203.705C279.645 202.938 278.676 197.352 277.037 195.926C275.4 194.499 272.738 192.633 269.257 194.279C265.776 195.925 263.729 198.778 264.855 205.362Z" fill="#A13204"/>
<path fill-rule="evenodd" clip-rule="evenodd" d="M254.719 354.818C253.286 356.573 248.372 358.219 248.269 360.853C248.167 363.486 255.027 363.047 255.641 362.389C256.255 361.73 258.609 360.194 259.224 360.085C259.839 359.975 261.271 357.012 261.374 355.037C261.393 354.685 261.441 354.333 261.504 353.98C260.057 353.727 258.694 353.145 257.586 352.123C257.564 354.27 256.096 353.13 254.719 354.818Z" fill="#C3C4CA"/>
<path fill-rule="evenodd" clip-rule="evenodd" d="M307.751 330.018C307.955 321.239 305.704 308.95 305.089 306.096C304.475 303.243 304.885 285.576 303.554 276.578C302.222 267.58 301.097 267.8 301.097 267.361C301.097 267.311 301.101 267.116 301.106 266.812C290.514 270.788 284.145 271.898 273.559 267.746C274.187 270.491 271.784 274.927 271.1 276.798C270.179 279.322 266.492 298.305 266.492 299.841C266.492 301.378 264.957 315.534 264.548 316.96C264.138 318.386 262.5 321.349 261.374 326.507C260.248 331.664 257.483 349.331 257.586 351.855C257.59 351.953 257.587 352.036 257.586 352.123C258.694 353.145 260.057 353.728 261.504 353.98C261.792 352.354 262.533 350.715 263.626 349.001C264.957 346.917 271.611 328.372 273.148 324.203C274.683 320.033 275.093 320.801 275.912 317.838C276.731 314.875 286.046 286.674 286.763 285.028C287.48 283.382 287.378 285.247 287.378 285.247C287.378 285.247 287.787 285.357 287.89 285.796C287.993 286.235 296.08 315.972 296.387 318.386C296.694 320.801 296.183 321.129 296.285 324.422C296.387 327.714 301.61 345.712 301.507 347.797C301.536 347.209 302.125 349.558 302.396 350.874C304.074 350.715 305.695 350.343 307.195 349.491C307.155 346.621 307.572 337.728 307.751 330.018Z" fill="#2D4A61"/>
<path fill-rule="evenodd" clip-rule="evenodd" d="M312.358 356.794C310.004 355.587 307.444 351.527 307.239 350.32C307.214 350.173 307.199 349.889 307.195 349.491C305.695 350.342 304.074 350.715 302.396 350.874C302.562 351.685 302.608 352.104 302.326 351.199C302.531 351.856 301.814 353.283 301.917 354.929C302.019 356.575 303.963 358.33 304.475 358.55C304.987 358.77 306.728 361.952 308.98 362.5C311.233 363.049 313.996 361.513 314.303 360.196C314.611 358.879 314.713 358.001 312.358 356.794Z" fill="#C3C4CA"/>
<path fill-rule="evenodd" clip-rule="evenodd" d="M292.768 258.263C292.441 258.085 292.109 257.936 291.746 257.888C290.978 257.785 283.334 256.909 278.668 254.744C276.573 257.607 275.101 259.455 275.106 262.886C279.114 263.413 285.665 264.227 289.041 264.644C290.114 262.473 291.104 260.031 292.768 258.263Z" fill="#A13204"/>
<path fill-rule="evenodd" clip-rule="evenodd" d="M266.22 227.894C266.22 227.894 258.848 225.699 257.347 226.284C255.845 226.869 255.572 233.6 256.118 235.063C256.471 236.008 259.613 243.054 262.088 249.228C265.317 246.862 268.531 244.414 271.546 241.563C269.105 235.384 266.299 228.32 266.22 227.894Z" fill="#F2AD34"/>
<path fill-rule="evenodd" clip-rule="evenodd" d="M275.093 250.719C274.864 249.986 273.299 246.002 271.546 241.563C268.53 244.414 265.317 246.862 262.088 249.228C263.446 252.613 264.604 255.739 264.991 257.449C266.084 262.276 270.314 262.131 271.817 262.423C272.166 262.491 273.41 262.663 275.106 262.886C275.102 259.455 277.447 257.269 279.542 254.406C277.571 253.491 275.254 251.241 275.093 250.719Z" fill="#DDCDB4"/>
<path fill-rule="evenodd" clip-rule="evenodd" d="M272.206 339.157C271.867 339.401 266.999 341.715 266.886 342.079C266.774 342.445 263.378 351.21 263.378 351.21C263.378 351.21 266.321 352.549 266.547 352.062C266.774 351.575 272.206 339.157 272.206 339.157Z" fill="#5B5249"/>
<path fill-rule="evenodd" clip-rule="evenodd" d="M270.659 340.172L324.384 198.632L327.101 200.58L272.47 341.796L270.659 340.172Z" fill="#30515D"/>
<path fill-rule="evenodd" clip-rule="evenodd" d="M263.378 349.87C263.604 349.505 267.113 340.74 267.113 340.74L268.81 340.984L264.736 349.505L263.378 349.87Z" stroke="#C3C4CA" stroke-width="0.65"/>
<path fill-rule="evenodd" clip-rule="evenodd" d="M271.867 341.106L267 353.766C267 353.766 265.528 353.523 265.868 353.157C266.207 352.792 270.66 340.172 270.66 340.172L271.867 341.106Z" fill="#5B5249"/>
<path fill-rule="evenodd" clip-rule="evenodd" d="M264.057 348.897C264.057 348.897 252.625 364.236 252.965 364.114C253.304 363.992 254.663 363.749 254.663 363.749L264.736 349.506" fill="#5B5249"/>
<path fill-rule="evenodd" clip-rule="evenodd" d="M270.056 340.74C269.829 341.105 261.001 364.357 261.001 364.357L259.53 363.992L268.81 340.984L270.056 340.74Z" fill="#5B5249"/>
<path fill-rule="evenodd" clip-rule="evenodd" d="M256.813 363.627C257.266 362.653 264.17 350.723 264.17 350.723L264.849 350.357L258.51 363.87L256.813 363.627Z" fill="#5B5249"/>
<path fill-rule="evenodd" clip-rule="evenodd" d="M252.172 366.305C252.172 366.305 252.059 364.114 252.512 364.114C252.965 364.114 261.001 364.357 261.001 364.357L261.114 365.94L260.208 366.061L260.095 367.766H258.964V365.088H257.831L257.718 367.766L256.474 367.645V364.966L255.455 365.088L255.228 367.766L254.096 367.523V364.966L253.304 365.088L253.191 367.523L252.172 367.401V366.305Z" fill="#C3C4CA"/>
<path fill-rule="evenodd" clip-rule="evenodd" d="M305.806 258.18C305.396 257.595 300.346 258.034 299.8 257.888C299.254 257.741 298.435 258.765 297.616 259.205C296.797 259.643 296.524 259.351 295.295 259.205C294.474 259.106 292.814 257.221 292.156 256.863C290.788 258.316 289.996 261.99 289.163 264.459C288.919 265.181 289.369 265.956 290.079 266.053C290.801 266.15 291.336 266.227 291.336 266.227L292.156 265.788H293.657C293.657 265.788 297.889 269.446 298.844 269.3C299.8 269.153 301.438 269.592 301.438 269.592C301.438 269.592 302.393 269.738 302.939 269.446C303.486 269.153 304.441 268.275 304.714 267.69C304.987 267.105 305.123 266.373 305.26 265.935C305.396 265.495 305.806 265.35 306.489 265.057C307.171 264.764 306.762 263.594 306.762 263.008C306.762 262.423 307.308 262.862 307.717 261.984C308.126 261.106 306.216 258.765 305.806 258.18Z" fill="#D9DADE"/>
<path fill-rule="evenodd" clip-rule="evenodd" d="M324.131 218.969C324.439 218.749 324.336 217.762 324.542 216.994C324.746 216.225 325.361 215.896 325.463 214.689C325.565 213.482 324.951 213.263 324.951 212.934C324.951 212.604 325.258 211.727 324.951 210.63C324.644 209.532 321.675 209.642 321.265 209.532C320.855 209.422 321.777 207.337 320.651 207.008C319.525 206.679 319.217 208.983 318.809 208.874C318.398 208.764 318.603 210.081 318.603 210.081C318.603 210.081 317.784 209.971 317.17 210.191C316.556 210.41 317.068 211.507 317.068 211.507C317.068 211.507 316.658 212.056 315.941 212.275C315.225 212.495 315.327 213.482 315.327 213.482L315.839 214.141C315.839 214.141 314.713 215.238 314.611 215.568C314.541 215.792 315.042 216.474 315.368 216.886C317.877 218.254 320.579 219.133 323.255 220.067C323.706 219.445 324.023 219.047 324.131 218.969Z" fill="#D9DADE"/>
<path fill-rule="evenodd" clip-rule="evenodd" d="M254.428 377.837C253.459 377.837 233.749 371.375 242.472 372.667C251.197 373.96 254.751 376.868 254.428 375.899C254.105 374.929 249.904 358.449 254.105 363.943C258.306 369.436 256.367 376.222 256.69 375.252C257.014 374.283 259.275 363.296 263.153 367.82C267.031 372.344 254.428 377.837 254.428 377.837Z" fill="#E76111"/>
<path fill-rule="evenodd" clip-rule="evenodd" d="M270.908 370.405C271.877 368.467 287.388 358.449 284.157 364.266C280.925 370.082 270.908 370.405 270.908 370.405Z" fill="#E76111"/>
<path fill-rule="evenodd" clip-rule="evenodd" d="M258.629 386.562C259.361 385.061 271.076 377.31 268.636 381.81C266.195 386.312 258.629 386.562 258.629 386.562Z" fill="#E76111"/>
<path fill-rule="evenodd" clip-rule="evenodd" d="M229.871 371.698C227.932 371.375 216.299 354.894 223.408 362.004C230.517 369.113 229.871 371.698 229.871 371.698Z" fill="#E76111"/>
<path fill-rule="evenodd" clip-rule="evenodd" d="M240.857 368.143C238.919 368.79 221.469 358.449 228.255 357.803C235.041 357.157 240.857 368.143 240.857 368.143Z" fill="#E76111"/>
<path fill-rule="evenodd" clip-rule="evenodd" d="M271.231 377.837C271.231 377.837 280.602 365.881 283.834 370.728C287.065 375.576 271.231 377.837 271.231 377.837Z" fill="#E76111"/>
<path fill-rule="evenodd" clip-rule="evenodd" d="M232.253 380.056C232.253 380.056 218.401 381.112 221.9 376.876C225.4 372.641 232.253 380.056 232.253 380.056Z" fill="#E76111"/>
<path fill-rule="evenodd" clip-rule="evenodd" d="M255.075 383.976C255.075 383.976 232.456 384.299 240.211 380.745C247.966 377.191 255.075 383.976 255.075 383.976Z" fill="#00652E"/>
<path fill-rule="evenodd" clip-rule="evenodd" d="M268 371.698C268 371.698 266.061 355.865 268.647 361.034C271.232 366.204 268 371.698 268 371.698Z" fill="#00652E"/>
<path fill-rule="evenodd" clip-rule="evenodd" d="M291.266 374.606C290.296 373.96 287.388 360.711 291.266 365.881C295.143 371.051 291.266 374.606 291.266 374.606Z" fill="#00652E"/>
<path fill-rule="evenodd" clip-rule="evenodd" d="M278.986 386.239C278.017 385.27 270.262 372.021 276.725 376.222C283.187 380.423 280.279 383.977 280.279 383.977C280.279 383.977 287.388 371.698 288.034 377.837C288.68 383.977 278.986 386.239 278.986 386.239Z" fill="#00652E"/>
<path fill-rule="evenodd" clip-rule="evenodd" d="M289.112 380.831C289.688 380.831 301.385 376.996 296.207 377.762C291.03 378.53 288.92 380.256 289.112 379.68C289.304 379.105 291.797 369.325 289.304 372.585C286.811 375.845 287.962 379.872 287.77 379.297C287.579 378.722 286.236 372.202 283.935 374.886C281.633 377.571 289.112 380.831 289.112 380.831Z" fill="#E4462D"/>
<path fill-rule="evenodd" clip-rule="evenodd" d="M205.744 368.714C206.32 368.714 218.018 364.878 212.84 365.645C207.662 366.412 205.553 368.138 205.744 367.563C205.936 366.988 208.429 357.208 205.936 360.467C203.443 363.728 204.594 367.755 204.402 367.18C204.21 366.604 202.868 360.085 200.567 362.769C198.266 365.454 205.744 368.714 205.744 368.714Z" fill="#E4462D"/>
<path fill-rule="evenodd" clip-rule="evenodd" d="M286.619 386.009C286.184 385.118 279.233 380.518 280.681 383.189C282.13 385.86 286.619 386.009 286.619 386.009Z" fill="#E4462D"/>
<path fill-rule="evenodd" clip-rule="evenodd" d="M303.686 377.188C304.837 376.996 311.741 367.216 307.522 371.434C303.303 375.654 303.686 377.188 303.686 377.188Z" fill="#E4462D"/>
<path fill-rule="evenodd" clip-rule="evenodd" d="M279.141 380.831C279.141 380.831 273.579 373.736 271.662 376.613C269.744 379.489 279.141 380.831 279.141 380.831Z" fill="#E4462D"/>
<path fill-rule="evenodd" clip-rule="evenodd" d="M302.273 382.148C302.273 382.148 310.492 382.775 308.416 380.261C306.34 377.747 302.273 382.148 302.273 382.148Z" fill="#E4462D"/>
<path fill-rule="evenodd" clip-rule="evenodd" d="M288.729 384.475C288.729 384.475 302.152 384.666 297.55 382.557C292.948 380.448 288.729 384.475 288.729 384.475Z" fill="#E4462D"/>
<path fill-rule="evenodd" clip-rule="evenodd" d="M281.058 377.188C281.058 377.188 282.209 367.791 280.675 370.86C279.141 373.927 281.058 377.188 281.058 377.188Z" fill="#E4462D"/>
<path fill-rule="evenodd" clip-rule="evenodd" d="M274.538 385.817C275.114 385.242 279.716 377.38 275.88 379.872C272.045 382.365 273.771 384.475 273.771 384.475C273.771 384.475 269.552 377.188 269.168 380.831C268.785 384.475 274.538 385.817 274.538 385.817Z" fill="#E4462D"/>
<path fill-rule="evenodd" clip-rule="evenodd" d="M207.251 384.946C204.02 383.977 185.602 369.113 195.619 374.606C205.636 380.099 206.605 383.007 206.605 383.007C206.605 383.007 197.557 367.174 206.605 371.051C215.653 374.929 207.251 384.946 207.251 384.946Z" fill="#00652E"/>
<path fill-rule="evenodd" clip-rule="evenodd" d="M143.5 414.028C140.326 412.916 122.23 395.864 132.071 402.166C141.913 408.467 142.865 411.804 142.865 411.804C142.865 411.804 133.977 393.64 142.865 398.088C151.754 402.536 143.5 414.028 143.5 414.028Z" fill="#00652E"/>
<path fill-rule="evenodd" clip-rule="evenodd" d="M310.33 375.898C309.038 375.898 298.051 362.65 304.837 367.174C311.623 371.697 310.33 373.313 310.33 373.313C310.33 373.313 317.762 356.834 316.793 365.235C315.824 373.637 310.33 375.898 310.33 375.898Z" fill="#00652E"/>
<path fill-rule="evenodd" clip-rule="evenodd" d="M328.749 377.514C327.779 377.191 319.055 365.558 324.225 369.113C329.395 372.667 329.395 374.929 329.395 374.929C329.395 374.929 334.888 360.711 335.534 366.851C336.181 372.99 328.749 377.514 328.749 377.514Z" fill="#E4462D"/>
<path fill-rule="evenodd" clip-rule="evenodd" d="M41.5392 312.682C38.6311 311.713 3.73255 289.417 15.3656 291.356C26.998 293.294 41.5392 308.805 41.5392 308.805C41.5392 308.805 2.06205 265.714 19.3768 264.964C36.6921 264.213 41.5392 312.682 41.5392 312.682Z" fill="#00652E"/>
<path fill-rule="evenodd" clip-rule="evenodd" d="M369.22 429.511C364.129 425.438 314.238 376.565 337.656 379.62C361.075 382.674 365.147 416.274 365.147 413.22C365.147 410.165 335.62 308.347 365.147 330.748C394.674 353.147 369.22 429.511 369.22 429.511Z" fill="#00652E"/>
<path fill-rule="evenodd" clip-rule="evenodd" d="M138.428 440.152C133.581 439.183 118.071 416.886 88.02 395.56C57.9685 374.233 26.4637 377.141 71.0556 409.131C115.648 441.121 138.428 440.152 138.428 440.152Z" fill="#00652E"/>
<path fill-rule="evenodd" clip-rule="evenodd" d="M140.852 443.06C140.852 443.06 78.8105 375.688 99.6528 367.448C120.494 359.208 140.852 443.06 140.852 443.06Z" fill="#00652E"/>
<path fill-rule="evenodd" clip-rule="evenodd" d="M142.791 441.606C140.367 441.121 27.4326 433.851 52.1527 418.826C76.8716 403.8 142.791 441.606 142.791 441.606Z" fill="#43AC6C"/>
<path d="M99.6526 367.448L139.721 440.314" stroke="#43AC6C" stroke-width="0.65"/>
<path fill-rule="evenodd" clip-rule="evenodd" d="M157.017 447.781C158.274 449.272 121.453 351.354 106.317 340.531C106.317 340.531 136.217 423.081 157.017 447.781Z" fill="#21A29A"/>
<path fill-rule="evenodd" clip-rule="evenodd" d="M145.964 445.686C147.66 446.648 79.123 367.615 61.1707 362.721C61.1707 362.721 117.88 429.748 145.964 445.686Z" fill="#21A29A"/>
<path d="M94.8055 373.425L104.5 376.657L107.085 366.963" stroke="#43AC6C" stroke-width="0.65"/>
<path d="M111.932 371.81L109.67 384.412L98.0371 383.119" stroke="#43AC6C" stroke-width="0.65"/>
<path d="M100.299 390.228L114.193 393.783L118.717 380.534" stroke="#43AC6C" stroke-width="0.65"/>
<path d="M121.626 386.027L119.364 402.83L106.761 401.538" stroke="#43AC6C" stroke-width="0.65"/>
<path d="M112.578 407.354L124.21 410.586L126.796 397.014" stroke="#43AC6C" stroke-width="0.65"/>
<path d="M130.027 406.708L128.088 418.34L119.364 417.694" stroke="#43AC6C" stroke-width="0.65"/>
<path d="M125.18 423.834L132.289 427.389L134.227 417.695" stroke="#43AC6C" stroke-width="0.65"/>
<path d="M48.5978 422.219L142.791 441.606" stroke="#00652E" stroke-width="0.65"/>
<path d="M59.2611 416.402C59.5841 417.371 66.0464 425.773 66.0464 425.773L55.0608 429.004" stroke="#00652E" stroke-width="0.65"/>
<path d="M70.2477 432.235L78.0028 428.681L71.8629 415.432" stroke="#00652E" stroke-width="0.65"/>
<path d="M84.1423 417.048L90.6046 430.943L82.2034 434.498" stroke="#00652E" stroke-width="0.65"/>
<path d="M98.0368 436.436L100.945 432.881L96.4215 419.956" stroke="#00652E" stroke-width="0.65"/>
<path d="M107.085 424.48L112.901 435.467L107.085 438.375" stroke="#00652E" stroke-width="0.65"/>
<path d="M117.102 428.681L122.595 436.759L117.102 439.667" stroke="#00652E" stroke-width="0.65"/>
<path d="M48.5978 383.766L123.241 430.943" stroke="#00E67A" stroke-width="0.65"/>
<path d="M61.8463 382.15L65.0775 393.783L53.4451 394.429" stroke="#00E67A" stroke-width="0.65"/>
<path d="M72.8328 386.674L75.7409 400.568L63.1387 402.83" stroke="#00E67A" stroke-width="0.65"/>
<path d="M72.1863 408.97L87.3735 408.324L83.1726 391.844" stroke="#00E67A" stroke-width="0.65"/>
<path d="M93.5131 399.599L96.4212 414.463L81.8807 416.402" stroke="#00E67A" stroke-width="0.65"/>
<path d="M99.6526 421.895L104.5 419.31L103.207 406.062" stroke="#00E67A" stroke-width="0.65"/>
<path d="M109.993 413.494L112.578 423.511L110.316 425.45" stroke="#00E67A" stroke-width="0.65"/>
<path d="M352.42 337.365L363.62 345.002L367.184 331.766" stroke="#00E67A" stroke-width="0.65"/>
<path d="M374.311 342.965L367.184 359.765L352.928 351.111" stroke="#00E67A" stroke-width="0.65"/>
<path d="M353.948 361.292L369.729 374.529L378.893 356.202" stroke="#00E67A" stroke-width="0.65"/>
<path d="M379.911 370.456L371.257 393.365L357.002 377.584" stroke="#00E67A" stroke-width="0.65"/>
<path d="M360.057 391.838L371.256 406.601L377.874 393.365" stroke="#00E67A" stroke-width="0.65"/>
<path d="M331.547 381.147L369.22 425.947C378.384 375.039 357.002 328.202 357.002 328.202" stroke="#00E67A" stroke-width="0.65"/>
<path d="M365.585 336.799L364.616 348.917L360.254 349.402" stroke="#00E67A" stroke-width="0.65"/>
<path d="M348.347 383.693L347.838 401.001L341.729 400.493" stroke="#00E67A" stroke-width="0.65"/>
<path d="M355.475 390.311L355.984 409.656L348.347 408.637" stroke="#00E67A" stroke-width="0.65"/>
<path d="M362.093 401.51L361.584 415.255L355.475 415.765" stroke="#00E67A" stroke-width="0.65"/>
<path fill-rule="evenodd" clip-rule="evenodd" d="M69.9174 317.781C66.6674 315.831 51.0674 297.631 60.1674 304.131C69.2674 310.631 69.9174 317.781 69.9174 317.781Z" fill="#00652E"/>
<path fill-rule="evenodd" clip-rule="evenodd" d="M75.7674 304.13C79.6674 310.63 74.4674 316.48 74.4674 316.48C74.4674 316.48 99.1674 300.23 89.4174 308.68C79.6674 317.13 69.9174 317.78 69.9174 317.78" fill="#00652E"/>
<path fill-rule="evenodd" clip-rule="evenodd" d="M225.41 339.23C223.313 338.87 208.633 327.707 216.323 330.948C224.012 334.188 226.109 337.429 226.109 337.429C226.109 337.429 218.42 323.385 225.41 327.707C232.401 332.028 225.41 339.23 225.41 339.23Z" fill="#00652E"/>
<path fill-rule="evenodd" clip-rule="evenodd" d="M85.2526 340.531C84.1964 340.303 76.8026 333.252 80.6753 335.299C84.5487 337.347 85.6049 339.393 85.6049 339.393C85.6049 339.393 81.7316 330.523 85.2526 333.252C88.7737 335.982 85.2526 340.531 85.2526 340.531Z" fill="#00652E"/>
<path fill-rule="evenodd" clip-rule="evenodd" d="M330.303 397.73C329.246 397.503 321.853 390.452 325.725 392.499C329.599 394.547 330.655 396.593 330.655 396.593C330.655 396.593 326.782 387.723 330.303 390.452C333.823 393.182 330.303 397.73 330.303 397.73Z" fill="#00652E"/>
<path fill-rule="evenodd" clip-rule="evenodd" d="M168.717 408.78C168.717 408.78 156.367 391.88 161.567 395.78C166.767 399.68 168.067 403.58 168.067 403.58C168.067 403.58 164.817 383.43 170.667 389.28C176.517 395.13 168.717 408.78 168.717 408.78Z" fill="#00652E"/>
<path fill-rule="evenodd" clip-rule="evenodd" d="M220.286 391.88C218.634 391.88 205.967 381.976 212.576 385.278C219.185 388.579 222.489 391.55 221.938 390.56C221.388 389.569 224.692 376.033 225.793 383.958C226.895 391.88 220.286 391.88 220.286 391.88Z" fill="#00652E"/>
<path fill-rule="evenodd" clip-rule="evenodd" d="M178.036 374.33C176.384 374.33 163.717 364.426 170.326 367.728C176.935 371.029 180.239 374 179.688 373.01C179.138 372.019 182.442 358.483 183.543 366.408C184.645 374.33 178.036 374.33 178.036 374.33Z" fill="#00652E"/>
<path fill-rule="evenodd" clip-rule="evenodd" d="M376.679 422.171C376.679 422.171 386.087 307.819 390.308 332.378C390.709 334.711 387.502 403.513 376.679 422.171Z" fill="#008F2F"/>
<path fill-rule="evenodd" clip-rule="evenodd" d="M375.981 424.52C375.981 424.52 403.024 316.278 403.294 341.59C403.319 343.994 389.438 409.932 375.981 424.52Z" fill="#4AAA2B"/>
<path fill-rule="evenodd" clip-rule="evenodd" d="M377.083 424.243C377.083 424.243 412.476 321.224 410.75 346.414C410.586 348.806 391.6 411.995 377.083 424.243Z" fill="#98BE11"/>
<path fill-rule="evenodd" clip-rule="evenodd" d="M373.338 422.427C373.338 422.427 430.993 343.494 423.398 366.271C422.677 368.435 389.87 418.216 373.338 422.427Z" fill="#43AC6C"/>
<path fill-rule="evenodd" clip-rule="evenodd" d="M376.477 423.233C376.477 423.233 422.687 329.717 418.227 354.186C417.804 356.51 392.149 414.501 376.477 423.233Z" fill="#21A29A"/>
<path fill-rule="evenodd" clip-rule="evenodd" d="M381.267 419.181C381.267 419.181 435.217 315.831 447.567 334.681C459.917 353.531 417.667 382.131 420.267 381.481" fill="#008F2F"/>
<path fill-rule="evenodd" clip-rule="evenodd" d="M400.599 404.901C400.599 404.901 470.444 347.191 485.68 360.989C500.915 374.786 375.248 421.399 375.248 421.399L400.599 404.901Z" fill="#008F2F"/>
<path fill-rule="evenodd" clip-rule="evenodd" d="M120.401 350.931C120.401 351.768 105.365 352.447 86.817 352.447C68.2699 352.447 53.2341 351.768 53.2341 350.931C53.2341 350.093 68.2699 349.414 86.817 349.414C105.365 349.414 120.401 350.093 120.401 350.931Z" fill="#1E1210"/>
<path fill-rule="evenodd" clip-rule="evenodd" d="M55.4503 289.113C60.3585 289.014 82.853 293.007 89.4544 279.184C96.0558 265.36 105.372 264.283 103.237 276.061C101.102 287.84 91.0365 290.65 101.258 293.822C111.48 296.996 117.033 296.824 112.248 303.025C107.463 309.226 102.476 310.037 108.57 318.864L114.664 327.692C114.664 327.692 122.601 320.539 117.744 335.69C112.888 350.842 69.4559 355.272 60.4846 343.835C51.5126 332.399 59.7676 321.091 62.3975 318.904C65.0281 316.717 51.2253 312.075 54.1289 306.327C57.0331 300.579 63.2893 299.268 59.1423 297.158C54.9947 295.049 49.2851 289.237 55.4503 289.113Z" fill="#9ADCD9"/>
<path fill-rule="evenodd" clip-rule="evenodd" d="M59.1421 297.158C59.1421 297.158 87.7453 302.556 92.9135 288.643C92.9135 288.643 88.9712 310.444 59.1421 297.158Z" fill="#5EAAA4"/>
<path fill-rule="evenodd" clip-rule="evenodd" d="M110.403 298.183C110.403 298.183 81.7831 320.84 61.9081 309.313C61.9081 309.313 87.7456 329.983 110.403 298.183Z" fill="#5EAAA4"/>
<path fill-rule="evenodd" clip-rule="evenodd" d="M58.7283 328.393C58.7283 328.393 82.7523 359.984 114.664 327.692C114.664 327.692 80.9882 367.746 58.7283 328.393Z" fill="#5EAAA4"/>
<path fill-rule="evenodd" clip-rule="evenodd" d="M58.5398 289.546C58.5398 289.546 57.2976 290.1 56.0659 290.589C53.7083 291.529 51.3898 292.235 57.8963 288.378C67.8023 282.509 99.3539 265.632 99.3539 270.402C99.3539 275.171 97.1524 288.745 81.3769 291.314" fill="#5EAAA4"/>
<path fill-rule="evenodd" clip-rule="evenodd" d="M66.6782 288.245C69.063 285.861 72.2435 285.463 76.2182 282.68C80.193 279.898 82.9756 278.308 84.9633 277.513C86.951 276.718 92.1185 271.153 91.7207 274.731C91.3236 278.308 88.9387 281.09 88.9387 281.09L90.5286 285.065L86.1561 288.643C86.1561 288.643 81.3857 291.028 80.9886 288.245C80.5908 285.463 82.1807 285.463 79.7958 285.463C77.411 285.463 75.0261 288.245 75.0261 288.245C75.0261 288.245 70.6536 290.233 69.063 289.835C67.4731 289.438 65.0883 289.04 65.0883 289.04" fill="#C3C4CA"/>
<path fill-rule="evenodd" clip-rule="evenodd" d="M98.0809 272.345C95.2983 273.141 86.5532 270.358 86.5532 270.358L84.9633 277.513C84.9633 277.513 91.3235 281.487 92.9134 282.283C94.5033 283.078 96.491 280.295 96.491 280.295L98.0809 272.345Z" fill="#5B5B5F"/>
<path fill-rule="evenodd" clip-rule="evenodd" d="M75.8206 291.028C78.2054 290.631 88.9382 289.438 88.9382 289.438V281.09C88.9382 281.09 83.7707 280.693 82.1808 281.09C80.5909 281.488 78.2054 282.68 78.2054 282.68L77.8083 289.438" fill="#633E03"/>
<path fill-rule="evenodd" clip-rule="evenodd" d="M62.3341 316.914C62.3341 316.914 99.0864 327.336 105.668 315.181C105.668 315.181 80.9677 339.447 62.3341 316.914Z" fill="#EDEEF0"/>
<path fill-rule="evenodd" clip-rule="evenodd" d="M162.962 348.767L162.434 357.43L162.867 360.68H176.301L192.334 360.897C192.334 360.897 194.284 356.347 189.734 354.83C185.184 353.314 177.601 349.414 177.601 349.414" fill="#EDEEF0"/>
<path fill-rule="evenodd" clip-rule="evenodd" d="M185.725 220.822C185.725 221.364 186.484 230.356 185.4 231.547C184.317 232.739 177.817 230.789 177.817 230.789L176.625 219.847L186.7 219.089" fill="#1E1B18"/>
<path fill-rule="evenodd" clip-rule="evenodd" d="M177.102 266.416C176.825 269.68 173.679 277.866 174.021 278.645C174.361 279.426 184.222 284.139 184.982 283.005C185.496 282.241 187.602 272.3 189.201 263.801C185.435 261.822 181.746 259.831 177.683 259.016C177.493 261.751 177.26 264.548 177.102 266.416Z" fill="#A13204"/>
<path fill-rule="evenodd" clip-rule="evenodd" d="M193.208 237.438L177.247 247.603C177.247 247.603 178.094 249.745 177.987 253.399C177.943 254.962 177.824 256.972 177.683 259.016C181.746 259.831 185.434 261.822 189.201 263.801C189.97 259.719 190.621 255.968 190.922 253.728C191.849 246.826 193.208 237.438 193.208 237.438Z" fill="#454E87"/>
<path fill-rule="evenodd" clip-rule="evenodd" d="M147.457 352.574C147.276 353.548 147.156 354.452 148.523 355.477C150.657 357.079 159.61 361.766 160.864 362.38C162.119 362.993 161.507 365.286 160.605 365.067C159.702 364.849 141.864 365.677 139.901 364.464C137.936 363.253 135.033 364.084 133.834 361.547C132.635 359.01 132.951 359.644 132.683 356.364C132.617 355.57 132.44 354.543 132.195 353.318C137.271 353.473 142.349 353.531 147.457 352.574Z" fill="#C3C1C0"/>
<path fill-rule="evenodd" clip-rule="evenodd" d="M146.755 311.65C147.077 309.788 147.297 307.788 147.052 305.965C147.028 305.79 147.007 305.596 146.987 305.394C146.833 307.479 146.748 309.565 146.755 311.65Z" fill="#37527E"/>
<path fill-rule="evenodd" clip-rule="evenodd" d="M148.92 260.4C146.576 259.755 126.002 248.378 126.002 248.378C126.002 248.378 121.9 251.916 122.289 257.317C122.678 262.718 125.625 280.128 126.537 286.313C127.447 292.5 129.675 297.184 128.873 306.015C128.071 314.846 127.89 327.352 129.075 336.626C129.973 343.655 131.426 349.479 132.195 353.317C137.271 353.472 142.349 353.531 147.457 352.574C147.558 352.026 147.679 351.456 147.567 350.829C147.254 349.087 145.982 349.051 145.318 346.915C144.652 344.778 146.105 319.797 145.798 317.863C145.616 316.721 146.292 314.33 146.755 311.65C146.748 309.565 146.833 307.479 146.987 305.394C146.501 300.486 147.075 288.273 148.242 290.155C148.85 291.135 148.635 292.251 148.479 293.68C150.379 282.59 153.318 271.499 154.534 260.409C152.183 260.476 149.897 260.669 148.92 260.4Z" fill="#5D3A34"/>
<path fill-rule="evenodd" clip-rule="evenodd" d="M173.999 341.973C172.642 338.66 173.284 329.055 172.295 325.561C171.305 322.068 167.502 309.061 167.709 301.946C167.915 294.829 163.95 274.888 163.813 273.344C163.676 271.801 161.664 265.968 161.402 262.495C161.248 260.47 157.826 260.314 154.534 260.409C153.318 271.499 150.142 279.065 148.243 290.155C148.086 291.585 148.225 296.856 149.069 299.094C150.757 303.571 162.225 346.828 162.289 350.872C162.297 351.326 162.317 351.765 162.344 352.194C166.773 352.731 171.372 351.451 175.532 349.666C175.4 349.519 175.44 349.31 175.796 348.954C176.919 347.832 175.357 345.284 173.999 341.973Z" fill="#3B211D"/>
<path fill-rule="evenodd" clip-rule="evenodd" d="M180.82 210.206C180.154 210.187 175.165 211.347 175.347 211.654C175.528 211.96 173.385 220.13 176.619 223.638C179.852 227.146 183.983 229.273 183.983 229.273" fill="#822102"/>
<path fill-rule="evenodd" clip-rule="evenodd" d="M180.385 228.495C180.214 228.105 175.936 212.679 177.885 211.292L179.082 210.749C179.082 210.749 178.097 210.707 177.837 210.315C177.575 209.922 153.728 207.51 152.533 207.957C151.339 208.403 136.594 221.642 131.795 230.453C126.994 239.264 125.207 247.586 124.173 248.806C123.137 250.028 150.453 267.086 152.808 267.346C155.164 267.608 158.35 261.156 164.266 257.767C170.78 254.034 178.35 251.13 180.777 249.391C183.748 247.264 192.544 244.637 193.208 237.438C193.871 230.239 192.184 229.03 192.184 229.03" fill="#454E87"/>
<path fill-rule="evenodd" clip-rule="evenodd" d="M199.711 220.202C199.711 220.202 199.494 221.447 198.381 222.185C197.269 222.922 196.444 223.187 196.43 223.668C196.416 224.148 195.662 228.169 195.203 228.348C194.743 228.527 193.654 228.496 193.389 228.199C193.126 227.903 192.635 229.14 192.184 229.03C191.733 228.921 190.743 228.603 190.743 228.603C190.743 228.603 191.801 229.693 191.433 229.875C191.064 230.057 191.242 230.158 190.698 230.142C190.152 230.126 190.659 231.488 189.181 232.312C187.703 233.135 184.038 231.008 182.371 228.938C180.704 226.869 178.638 219.782 178.859 218.442C179.079 217.101 179.468 216.246 179.468 216.246C179.468 216.246 178.426 211.403 180.021 209.718C180.021 209.718 184.677 196.696 196.58 203.809C206.742 209.881 199.711 220.202 199.711 220.202Z" fill="#A13204"/>
<path fill-rule="evenodd" clip-rule="evenodd" d="M128.204 247.672C128.263 251.909 152.244 266.319 152.955 266.106C155.25 263.927 156.75 262.26 158.144 259.322C157.914 258.595 145.629 248.563 145.036 243.926C144.895 242.828 145.549 241.434 146.648 239.927C142.759 237.298 138.898 234.627 134.865 232.215C131.142 239.295 128.179 245.861 128.204 247.672Z" fill="#A13204"/>
<path fill-rule="evenodd" clip-rule="evenodd" d="M159.942 227.755L165.467 218.005C165.467 218.005 163.871 203.733 148.567 211.18C146.196 212.334 139.849 222.736 134.865 232.215C138.898 234.627 142.759 237.297 146.647 239.927C150.183 235.074 158.38 229.032 159.942 227.755Z" fill="#454E87"/>
<path fill-rule="evenodd" clip-rule="evenodd" d="M174.503 268.265C174.503 268.265 177.711 270.476 179.961 274.39C182.21 278.305 204.721 316.879 204.687 318.033C204.654 319.187 204.422 320.912 202.231 321.233C200.041 321.555 199.342 320.572 196.523 323.763C193.704 326.953 194.821 326.023 192.711 329.812C190.602 333.6 189.942 331.271 190.001 335.507C190.06 339.744 190.332 349.183 184.14 349.582C177.948 349.979 154.736 341.798 151.397 337.852C148.058 333.904 149.363 332.788 148.852 331.618C148.34 330.448 147.41 331.191 149.31 328.359C151.21 325.527 153.087 323.464 153.325 321.546C153.562 319.629 166.574 278.429 166.822 276.127" fill="#9ADCD9"/>
<path fill-rule="evenodd" clip-rule="evenodd" d="M173.592 275.855C173.592 275.855 203.167 319.73 201.217 318.43C199.267 317.13 174.242 281.38 173.592 275.855Z" fill="#5EAAA4"/>
<path fill-rule="evenodd" clip-rule="evenodd" d="M158.143 259.321C158.192 259.475 158.269 259.609 158.392 259.713C159.102 260.311 162.491 262.527 164.836 263.172C167.18 263.817 173.503 265.156 173.657 266.123C173.811 267.09 176.105 269.467 174.999 270.012C173.892 270.557 174.227 271.53 173.165 270.536C172.103 269.543 171.036 268.742 171.036 268.742C171.036 268.742 176.141 274.472 174.291 275.573C172.442 276.674 171.38 275.681 170.829 275.858C170.279 276.034 170.801 276.819 167.719 276.537C164.638 276.255 164.23 277.784 162.305 275.225C160.379 272.667 159.345 270.712 158.789 271.081C158.233 271.45 155.051 269.914 155.261 268.958C155.471 268.002 155.939 269.073 155.417 268.288C154.894 267.503 153.106 266.489 153.106 266.489C153.106 266.489 152.943 266.767 152.459 266.911C154.754 264.733 156.75 262.26 158.143 259.321Z" fill="#EDEEF0"/>
<path fill-rule="evenodd" clip-rule="evenodd" d="M166.767 278.781C166.767 278.781 197.317 321.031 195.367 319.731C193.417 318.431 167.092 283.656 166.767 278.781Z" fill="#5EAAA4"/>
<path fill-rule="evenodd" clip-rule="evenodd" d="M155.717 317.456C155.717 317.456 183.667 342.156 185.292 342.481C186.917 342.806 157.017 324.281 155.717 317.456Z" fill="#5EAAA4"/>
<path fill-rule="evenodd" clip-rule="evenodd" d="M161.242 296.331C162.542 297.956 186.917 324.281 186.592 326.881C186.267 329.481 160.917 299.256 160.917 299.256L161.242 296.331Z" fill="#5EAAA4"/>
<path fill-rule="evenodd" clip-rule="evenodd" d="M174.998 270.012C175.542 272.28 200.892 317.78 202.192 317.13C203.492 316.48 176.517 270.655 176.517 270.655" fill="#EDEEF0"/>
<path fill-rule="evenodd" clip-rule="evenodd" d="M157.992 306.405C157.018 304.951 185.617 339.555 189.517 332.08C189.517 332.08 180.417 339.88 157.992 306.405Z" fill="#EDEEF0"/>
<path fill-rule="evenodd" clip-rule="evenodd" d="M58.8673 300.881C57.3424 300.539 94.4008 308.247 98.7337 292.647C98.7337 292.647 109.134 312.147 58.8673 300.881Z" fill="#EDEEF0"/>
<path fill-rule="evenodd" clip-rule="evenodd" d="M196.667 350.93C196.667 350.93 201.217 348.98 203.817 348.98C206.417 348.98 219.417 349.63 219.417 349.63L209.667 355.48L196.667 350.93Z" fill="#EDEEF0"/>
<path fill-rule="evenodd" clip-rule="evenodd" d="M187.954 362.052C187.954 362.052 192.504 360.102 195.104 360.102C197.704 360.102 210.704 360.752 210.704 360.752L200.954 366.602L187.954 362.052Z" fill="#EDEEF0"/>
<path fill-rule="evenodd" clip-rule="evenodd" d="M197.317 344.458C197.317 344.458 199.267 341.874 200.73 341.229C202.192 340.583 209.992 342.521 209.992 342.521L212.917 346.396L201.705 345.749L197.317 344.458Z" fill="#F7F7F8"/>
<path fill-rule="evenodd" clip-rule="evenodd" d="M139.855 375.346C139.855 375.346 141.805 372.762 143.268 372.117C144.73 371.471 152.53 373.409 152.53 373.409L155.455 377.284L144.243 376.638L139.855 375.346Z" fill="#F7F7F8"/>
<path fill-rule="evenodd" clip-rule="evenodd" d="M132.195 353.317L131.667 361.98L132.1 365.23H145.534L161.567 365.447C161.567 365.447 163.517 360.897 158.967 359.38C154.417 357.864 146.834 353.964 146.834 353.964" fill="#EDEEF0"/>
<path fill-rule="evenodd" clip-rule="evenodd" d="M273.53 198.506C272.555 198.668 268.492 200.618 268.655 204.193C268.817 207.768 274.83 225.156 274.83 225.156C274.83 225.156 266.542 216.543 266.055 215.731C265.567 214.918 261.18 198.831 263.617 196.881C266.055 194.931 268.655 186.805 274.505 192.167L275.967 194.281C275.967 194.281 277.43 194.443 277.917 195.093C278.405 195.743 280.842 200.943 280.842 202.081C280.842 203.218 280.68 210.531 280.68 210.531L279.542 212.318C279.542 212.318 279.055 206.956 279.38 204.681C279.692 202.493 278.08 198.668 276.78 198.668C275.48 198.668 274.83 199.156 274.83 199.156L273.53 198.506Z" fill="#1E1210"/>
<path fill-rule="evenodd" clip-rule="evenodd" d="M192.875 228.351C192.875 228.351 191.304 226.889 190.709 227.105C190.113 227.322 189.084 228.026 189.247 227.972C189.409 227.918 190.384 227.755 190.872 227.918C191.359 228.08 192.172 228.785 192.388 228.839C192.604 228.893 192.875 228.351 192.875 228.351Z" fill="#1E1210"/>
<path fill-rule="evenodd" clip-rule="evenodd" d="M184.48 230.789C184.696 230.626 187.73 228.297 187.513 228.947C187.296 229.597 187.676 231.439 188.488 231.547C189.301 231.655 189.788 231.601 189.788 231.601C189.788 231.601 190.601 232.739 189.517 233.172C188.434 233.605 185.346 232.739 185.346 232.739L184.48 230.789Z" fill="#1E1210"/>
<path fill-rule="evenodd" clip-rule="evenodd" d="M179.767 216.326C180.363 216.326 193.146 212.751 193.146 212.751C193.146 212.751 192.605 209.501 192.767 209.555C192.93 209.61 201.813 215.351 201.813 215.351C201.813 215.351 205.551 205.33 191.901 201.918C191.901 201.918 186.051 199.643 181.446 206.847C181.446 206.847 179.28 214.539 179.442 215.46" fill="#1E1210"/>
<path fill-rule="evenodd" clip-rule="evenodd" d="M184.308 215.896C182.996 217.604 181.173 218.406 180.236 217.687C179.298 216.967 179.602 214.999 180.914 213.29C182.225 211.582 184.049 210.78 184.986 211.499C185.923 212.219 185.62 214.188 184.308 215.896Z" fill="#A13204"/>
</g>
</svg>
