<svg width="500" height="500" viewBox="0 0 500 500" fill="none" xmlns="http://www.w3.org/2000/svg">
<path d="M250 500C388.071 500 500 388.071 500 250C500 111.929 388.071 0 250 0C111.929 0 0 111.929 0 250C0 388.071 111.929 500 250 500Z" fill="#82B9FF"/>
<path d="M1.39355 223.633H498.607C494.535 184.804 481.544 148.652 461.769 117.188H38.2305C18.4551 148.652 5.46387 184.804 1.39355 223.633Z" fill="#B4B4BE"/>
<path d="M0.197266 242.188H499.803C499.224 223.367 496.642 205.051 492.124 187.5H7.87598C3.3584 205.051 0.776367 223.367 0.197266 242.188Z" fill="#FAB98C"/>
<path d="M409.112 183.827C406.962 183.827 404.931 184.25 402.982 184.864C396.814 175.996 386.58 170.165 374.958 170.165C363.336 170.165 353.103 175.996 346.934 184.864C344.986 184.25 342.954 183.827 340.804 183.827C329.486 183.827 320.312 193.002 320.312 204.319H429.604C429.605 193.002 420.431 183.827 409.112 183.827Z" fill="white"/>
<path d="M121.79 175.654C120.165 175.654 118.63 175.974 117.158 176.439C112.496 169.737 104.764 165.331 95.9814 165.331C87.1992 165.331 79.4668 169.737 74.8047 176.439C73.333 175.975 71.7979 175.654 70.1729 175.654C61.6201 175.654 54.6875 182.588 54.6875 191.14H137.275C137.275 182.588 130.343 175.654 121.79 175.654Z" fill="white"/>
<path d="M296.875 193.085C296.875 184.885 290.237 178.239 282.05 178.239C280.815 178.239 279.633 178.434 278.486 178.72C274.617 174.536 269.132 171.876 262.989 171.876C251.292 171.876 241.811 181.372 241.811 193.086L296.875 193.085Z" fill="white"/>
<path d="M429.604 123.206C429.604 112.68 421.084 104.146 410.572 104.146C408.985 104.146 407.469 104.397 405.996 104.764C401.03 99.3926 393.988 95.9775 386.103 95.9775C376.199 95.9775 367.536 101.281 362.782 109.206C360.228 108.063 357.404 107.412 354.425 107.412C352.274 107.412 350.243 107.835 348.295 108.449C342.126 99.5801 331.893 93.75 320.271 93.75C308.649 93.75 298.416 99.5801 292.247 108.449C290.3 107.835 288.268 107.412 286.117 107.412C274.8 107.412 265.625 116.587 265.625 127.904H374.917C374.917 126.285 374.71 124.718 374.354 123.206H429.604V123.206Z" fill="white"/>
<path d="M132.812 123.206C132.812 115.7 126.736 109.614 119.241 109.614C118.11 109.614 117.028 109.793 115.978 110.055C112.436 106.225 107.415 103.789 101.792 103.789C91.085 103.789 82.4043 112.482 82.4043 123.205L132.812 123.206Z" fill="white"/>
<path d="M484.375 193.085C484.375 184.885 477.737 178.239 469.55 178.239C468.315 178.239 467.133 178.434 465.985 178.72C462.117 174.536 456.632 171.876 450.489 171.876C438.792 171.876 429.311 181.372 429.311 193.086L484.375 193.085Z" fill="white"/>
<path d="M0 250C0 255.253 0.21582 260.453 0.535156 265.625H499.465C499.784 260.453 500 255.253 500 250C500 244.747 499.784 239.547 499.465 234.375H0.535156C0.21582 239.547 0 244.747 0 250Z" fill="#FFDC50"/>
<path d="M445.091 406.25H54.9092C100.727 463.382 171.068 500 250 500C328.932 500 399.273 463.382 445.091 406.25Z" fill="#D7645A"/>
<path d="M481.25 265.625L468.75 234.375L453.125 156.25C453.125 156.25 437.5 148.438 421.875 148.438C406.25 148.438 398.437 164.062 398.437 164.062C398.437 164.062 398.437 210.938 390.625 218.75C382.812 226.562 382.812 187.5 382.812 179.688C382.812 171.875 375 179.688 375 179.688L367.187 218.75L333.705 265.625H0.535156C1.7002 284.502 4.9707 302.799 10.0957 320.312H489.905C495.03 302.799 498.302 284.502 499.466 265.625H481.25Z" fill="#CD554F"/>
<path d="M63.6103 416.553C88.0644 389.207 106.606 356.473 117.187 320.312H10.0947C20.6728 356.458 39.1621 389.211 63.6103 416.553Z" fill="#EB785F"/>
<path d="M296.875 320.312L380.859 441.406C380.859 441.406 395.508 441.152 411.055 441.152C448.113 409.895 475.93 368.07 489.904 320.312H296.875Z" fill="#EB7869"/>
<path d="M351.562 375L421.184 431.963C438.866 415.319 454.102 396.152 466.345 375H351.562Z" fill="#D7645A"/>
<path d="M390.625 390.625L351.562 375H33.5283C56.2383 414.242 89.2725 446.741 128.963 468.75H371.036C396.496 454.632 419.205 436.189 438.23 414.428L390.625 390.625Z" fill="#EB7869"/>
<path d="M85.9375 304.688L109.375 257.812L117.188 109.375C117.188 109.375 117.188 93.75 140.625 93.75C152.978 93.75 187.5 109.375 187.5 109.375C187.5 109.375 204.761 101.562 210.938 101.562C226.562 101.562 242.188 125 242.188 125L250 218.75L263.997 192.708L273.438 148.438H281.25L296.875 304.688H85.9375Z" fill="#EB7869"/>
<path d="M227.146 108.56L234.375 195.313C234.799 204.14 237.305 232.097 250 218.75L242.188 125C242.188 125 235.813 115.467 227.146 108.56Z" fill="#FF9184"/>
<path d="M62.5 312.5L85.9375 304.688H296.875L312.64 315.197C317.686 318.562 321.879 323.054 324.888 328.318L351.562 375C351.562 375 140.625 421.875 39.0625 367.188L62.5 312.5Z" fill="#EB7869"/>
<path d="M117.187 109.375L138.15 249.125C139.328 256.978 132.143 263.504 124.439 261.578L109.375 257.812L117.187 109.375Z" fill="#D7645A"/>
<path d="M250 218.75C250 218.75 254.558 263.672 259.114 263.672C263.854 263.672 263.997 192.708 263.997 192.708L250 218.75Z" fill="#D76450"/>
<path d="M205.972 382.643L351.563 375L324.888 328.319C321.879 323.054 317.686 318.562 312.64 315.198L296.875 304.688C296.875 304.688 285.257 166.971 281.25 148.438C278.646 136.394 273.682 142.09 273.438 148.438C272.235 179.692 273.438 277.391 273.438 277.391C273.438 288.635 265.309 298.231 254.218 300.078L234.254 303.405C226.578 304.685 227.104 315.887 234.866 316.442L267.578 318.778C280.27 319.685 290.791 328.957 293.286 341.434L293.448 342.243C295.324 351.624 289.082 360.702 279.65 362.308L205.078 375C200.37 375.891 201.185 382.862 205.972 382.643Z" fill="#FF9184"/>
<path d="M101.562 273.438L237.382 280.586C243.337 280.899 247.017 287.218 244.35 292.552C243.014 295.223 240.343 296.967 237.36 297.116L85.9375 304.688L101.562 273.438Z" fill="#D7645A"/>
<path d="M126.465 379.395C136.067 360.677 262.37 364.909 253.906 338.542C249.457 324.681 156.738 326.335 121.582 323.73C86.4258 321.126 62.5 312.5 62.5 312.5L39.0625 367.187C89.1924 389.974 122.179 387.749 126.465 379.395Z" fill="#D7645A"/>
<path d="M425.356 427.938L46.3525 394.692C59.8955 413.725 76.0146 430.754 94.2363 445.313H405.889C412.691 439.871 419.161 434.048 425.356 427.938Z" fill="#D7645A"/>
<path d="M183.306 263.718C176.449 261.627 172.344 254.603 173.398 247.511C178.007 216.508 191.623 126.178 193.847 125.976C204.85 124.976 204.101 253.173 202.392 262.206C201.654 266.109 192.238 266.442 183.306 263.718Z" fill="#CD5546"/>
<path d="M148.437 257.813C149.089 264.649 157.878 268.88 160.807 258.464C170.94 222.434 187.5 109.375 187.5 109.375C187.5 109.375 153.398 93.9454 140.863 93.7667C141.751 122.355 145.01 221.832 148.437 257.813Z" fill="#CD5546"/>
<path d="M229.492 267.09C238.83 268.363 241.417 257.531 240.531 248.232L227.235 108.629C222.302 104.68 216.624 101.562 210.938 101.562L213.867 244.141C213.51 254.723 218.75 265.625 229.492 267.09Z" fill="#D7645A"/>
<path d="M187.418 264.729L194.349 126.116C194.182 126.069 194.021 125.961 193.848 125.977C191.623 126.179 178.007 216.509 173.399 247.512C172.345 254.603 176.449 261.628 183.307 263.719C184.68 264.137 186.055 264.457 187.418 264.729Z" fill="#D7645A"/>
</svg>
