<svg width="500" height="500" viewBox="0 0 500 500" fill="none" xmlns="http://www.w3.org/2000/svg">
<g clip-path="url(#clip0)">
<path d="M416.724 64.0865C414.589 51.7043 405.385 44.0624 387.096 47.2827C365.651 27.3438 334.078 41.6202 333.342 63.6831C307.323 60.8575 298.951 71.8284 298.951 82.3088C315.913 82.3088 427.498 82.3088 444.186 82.3088C443.289 69.719 430.221 62.9728 416.724 64.0865" fill="#DCF5F9"/>
<path d="M193.98 36.3069C191.837 25.3983 182.604 18.665 164.256 21.5024C145.059 4.11458 113.724 15.296 110.33 35.9517C84.2271 33.4624 75.8284 43.1278 75.8284 52.3616C92.8451 52.3616 204.788 52.3616 221.53 52.3616C220.63 41.2695 207.52 35.3254 193.98 36.3069Z" fill="#DCF5F9"/>
<path d="M316.064 355.707H164.573V331.985H320.253V355.707H316.064Z" fill="#BDFFD8"/>
<path d="M292.63 379.429H141.14V355.707H296.819V379.429H292.63" fill="#92F2B8"/>
<path d="M170.265 403.153H325.945V379.43H170.265V403.153Z" fill="#BDFFD8"/>
<path d="M303.812 426.875H152.322V403.153H308.001V426.875H303.812Z" fill="#92F2B8"/>
<path d="M325.652 450.598H174.161V426.876H329.841V450.598H325.652Z" fill="#BDFFD8"/>
<path d="M311.741 474.321H160.25V450.598H315.93V474.321H311.741" fill="#92F2B8"/>
<path d="M201.106 403.153H45.4263V379.43H170.265V403.153H201.106Z" fill="#DEFFEC"/>
<path d="M170.265 403.153H201.106V379.43H170.265V403.153Z" fill="#BDFFD8"/>
<path d="M189.42 426.875H33.7401V403.153H152.322V426.875H156.51H189.42Z" fill="#CDFFE1"/>
<path d="M189.42 426.875H152.322V403.153H189.42V426.875Z" fill="#97F9BE"/>
<path d="M181.537 450.598H25.8573V426.876H174.161V450.598H178.349H181.537" fill="#DEFFEC"/>
<path d="M181.537 450.598H174.161V426.876H181.537V450.598" fill="#BDFFD8"/>
<path d="M198.912 474.321H43.233V450.598H160.251V474.321H164.439H198.912" fill="#CDFFE1"/>
<path d="M198.912 474.321H160.25V450.598H198.912V474.321" fill="#97F9BE"/>
<path d="M463.272 426.875H307.593H308.001V403.153H463.272V426.875Z" fill="#CDFFE1"/>
<path d="M307.593 426.875H308.001V403.153H307.593V426.875Z" fill="#97F9BE"/>
<path d="M463.272 403.153H307.593H325.945V379.43H463.272V403.153Z" fill="#DEFFEC"/>
<path d="M307.593 403.153H325.945V379.43H307.593V403.153Z" fill="#BDFFD8"/>
<path d="M476.369 450.598H320.689H329.841V426.876H476.369V450.598Z" fill="#DEFFEC"/>
<path d="M329.841 450.598H320.689V426.876H329.841V450.598Z" fill="#BDFFD8"/>
<path d="M443.35 474.321H287.671H315.93V450.598H443.35V474.321" fill="#CDFFE1"/>
<path d="M315.93 474.321H287.671V450.598H315.93V474.321" fill="#97F9BE"/>
<path d="M15.428 198.326C15.428 198.326 79.1613 177.927 109.77 188.931C133.203 197.355 154.021 226.045 154.021 226.045C154.021 226.045 116.266 267.66 68.6109 249.792C31.0643 235.716 15.428 198.326 15.428 198.326Z" fill="#DCF5F9"/>
<path d="M59.9124 59.6278C59.9124 59.6278 107.731 101.403 137.048 158.571C155.152 193.874 151.988 254.046 151.988 254.046C151.988 254.046 68.3611 225.356 51.2267 174.442C38.8939 137.796 59.9124 59.6278 59.9124 59.6278Z" fill="#BDFFD8"/>
<path d="M385.711 184.626C385.711 267.742 318.333 335.12 235.218 335.12C152.103 335.12 84.7245 267.742 84.7245 184.626C84.7245 101.511 152.103 34.1335 235.218 34.1335C318.333 34.1335 385.711 101.511 385.711 184.626Z" fill="white"/>
<path d="M385.711 184.626H384.241C384.24 225.782 367.563 263.029 340.593 290.002C313.621 316.971 276.374 333.648 235.218 333.65C194.062 333.648 156.815 316.971 129.843 290.002C102.873 263.029 86.1959 225.783 86.1947 184.626C86.1959 143.47 102.873 106.224 129.843 79.2514C156.815 52.2811 194.062 35.6043 235.218 35.6031C276.374 35.6043 313.621 52.2811 340.593 79.2514C367.563 106.224 384.24 143.47 384.241 184.626H385.711H387.181C387.18 100.699 319.146 32.664 235.218 32.6628C151.29 32.664 83.2556 100.699 83.2544 184.626C83.2556 268.554 151.29 336.589 235.218 336.59C319.146 336.589 387.18 268.554 387.181 184.626H385.711Z" fill="#4ACFD3"/>
<path d="M370.662 184.626C370.662 259.43 310.022 320.071 235.218 320.071C160.414 320.071 99.7742 259.43 99.7742 184.626C99.7742 109.823 160.414 49.1826 235.218 49.1826C310.022 49.1826 370.662 109.823 370.662 184.626Z" fill="#B4F1F4"/>
<path d="M370.662 184.627H369.192C369.191 221.627 354.199 255.111 329.952 279.36C305.702 303.607 272.219 318.6 235.218 318.601C198.217 318.6 164.733 303.607 140.484 279.36C116.237 255.111 101.245 221.627 101.244 184.627C101.245 147.626 116.237 114.142 140.484 89.8933C164.733 65.6463 198.217 50.6537 235.218 50.6531C272.218 50.6537 305.702 65.6463 329.952 89.8933C354.199 114.142 369.191 147.626 369.192 184.627H370.662H372.132C372.131 109.011 310.834 47.7134 235.218 47.7128C159.602 47.7139 98.3045 109.011 98.304 184.627C98.3045 260.243 159.602 321.54 235.218 321.541C310.834 321.54 372.131 260.243 372.132 184.627H370.662" fill="white"/>
<path d="M340.563 184.626C340.563 242.807 293.398 289.971 235.218 289.971C177.037 289.971 129.872 242.807 129.872 184.626C129.872 126.446 177.037 79.2815 235.218 79.2815C293.398 79.2815 340.563 126.446 340.563 184.626Z" fill="white"/>
<path d="M340.563 184.626H339.093C339.092 213.316 327.468 239.275 308.669 258.077C289.866 276.877 263.907 288.501 235.218 288.501C206.529 288.501 180.569 276.877 161.767 258.077C142.967 239.275 131.344 213.316 131.343 184.626C131.344 155.938 142.967 129.978 161.767 111.176C180.569 92.3758 206.529 80.7522 235.218 80.7516C263.907 80.7522 289.866 92.3758 308.669 111.176C327.468 129.978 339.092 155.937 339.093 184.626H340.563H342.033C342.032 125.634 294.211 77.8119 235.218 77.8113C176.225 77.8119 128.403 125.633 128.402 184.626C128.403 243.62 176.225 291.441 235.218 291.441C294.211 291.441 342.032 243.62 342.033 184.626H340.563Z" fill="#4ACFD3"/>
<path d="M325.288 184.626C325.288 234.371 284.962 274.697 235.218 274.697C185.474 274.697 145.148 234.371 145.148 184.626C145.148 134.882 185.474 94.5563 235.218 94.5563C284.962 94.5563 325.288 134.882 325.288 184.626" fill="#B4F1F4"/>
<path d="M325.288 184.626H323.818C323.817 209.097 313.904 231.238 297.868 247.276C281.83 263.312 259.689 273.226 235.218 273.227C210.747 273.226 188.606 263.312 172.568 247.276C156.532 231.238 146.619 209.097 146.618 184.626C146.619 160.155 156.532 138.015 172.568 121.977C188.606 105.941 210.747 96.0272 235.218 96.0266C259.689 96.0272 281.83 105.941 297.868 121.977C313.904 138.015 323.817 160.155 323.818 184.626H325.288H326.759C326.757 134.069 285.775 93.0875 235.218 93.0863C184.661 93.0875 143.678 134.069 143.678 184.626C143.678 235.183 184.661 276.166 235.218 276.167C285.775 276.166 326.757 235.183 326.759 184.626H325.288" fill="white"/>
<path d="M294.764 184.626C294.764 217.513 268.104 244.173 235.218 244.173C202.332 244.173 175.671 217.513 175.671 184.626C175.671 151.74 202.332 125.08 235.218 125.08C268.104 125.08 294.764 151.74 294.764 184.626Z" fill="white"/>
<path d="M294.764 184.626H293.294C293.293 200.669 286.796 215.178 276.284 225.692C265.769 236.205 251.26 242.702 235.218 242.703C219.176 242.702 204.666 236.205 194.152 225.692C183.639 215.178 177.142 200.669 177.141 184.626C177.142 168.585 183.639 154.075 194.152 143.56C204.666 133.049 219.176 126.551 235.218 126.55C251.26 126.551 265.769 133.049 276.284 143.56C286.796 154.075 293.293 168.585 293.294 184.626H294.764H296.234C296.233 150.927 268.917 123.611 235.218 123.61C201.519 123.611 174.202 150.927 174.201 184.626C174.202 218.326 201.519 245.642 235.218 245.643C268.917 245.642 296.233 218.326 296.234 184.626H294.764Z" fill="#4ACFD3"/>
<path d="M279.611 184.626C279.611 209.144 259.736 229.02 235.218 229.02C210.7 229.02 190.824 209.144 190.824 184.626C190.824 160.109 210.7 140.233 235.218 140.233C259.736 140.233 279.611 160.109 279.611 184.626Z" fill="#B4F1F4"/>
<path d="M279.611 184.626H278.141C278.141 196.484 273.339 207.205 265.569 214.977C257.797 222.747 247.076 227.549 235.218 227.549C223.36 227.549 212.639 222.747 204.867 214.977C197.097 207.205 192.296 196.484 192.295 184.626C192.296 172.768 197.097 162.048 204.867 154.275C212.639 146.505 223.36 141.704 235.218 141.703C247.076 141.704 257.797 146.505 265.569 154.275C273.339 162.048 278.14 172.768 278.141 184.626H279.611H281.082C281.08 159.296 260.549 138.764 235.218 138.763C209.888 138.764 189.356 159.296 189.354 184.626C189.356 209.956 209.888 230.489 235.218 230.49C260.549 230.489 281.08 209.956 281.082 184.626H279.611Z" fill="white"/>
<path d="M494.414 106.391L495.168 109.037L441.6 125.714L330.072 165.492L330.45 166.769C323.458 169.06 317.266 171.059 312.226 172.642C306.395 174.474 300.212 170.995 298.495 165.128C296.779 159.261 300.114 153.009 306.009 151.397C310.953 150.046 317.587 148.266 324.445 146.472L324.766 147.558L440.368 121.551L494.414 106.391" fill="#1282C6"/>
<path d="M306.841 160.484L308.01 164.556L263.471 177.07L235.516 184.409L235.218 183.395L262.583 174.322L306.841 160.484" fill="#1282C6"/>
<path d="M488.866 110.19C505.566 120.869 503.762 141.052 481.572 142.771C452.409 145.031 427.198 128.358 427.198 128.358L488.866 110.19Z" fill="#1282C6"/>
<path d="M488.464 108.905C496.665 90.8581 484.171 74.9051 464.618 85.5355C438.92 99.5073 426.837 127.213 426.837 127.213L488.464 108.905Z" fill="#1282C6"/>
<path d="M483.163 474.242H-0.000488281V480.81H483.163V474.242Z" fill="#E3EDF5"/>
<path d="M177.602 240.431C177.602 240.431 177.191 213.089 177.907 212.39C179.026 211.295 181.958 213.658 183.306 215.185C187.011 219.378 204.726 257.714 200.814 272.279C200.216 274.504 193.684 276.951 193.684 276.951C193.684 276.951 184.142 267.469 183.779 266.631C181.35 261.019 178.333 242.845 178.333 242.845C177.852 242.127 177.599 241.29 177.602 240.431" fill="#00C18D"/>
<path d="M148.256 216.76C153.089 216.96 161.758 208.983 163.574 205.977C163.574 205.977 161.641 203.808 159.638 203.136C147.725 199.143 148.594 198.181 138.891 202.304C137.742 202.792 134.036 204.204 134.036 204.204C134.119 204.604 144.005 216.585 148.256 216.76" fill="#C2866E"/>
<path d="M147.554 212.88C142.14 212.243 138.374 207.186 139.315 201.816L141.345 190.241L158.916 192.064L158.134 204.071C157.781 209.496 152.953 213.516 147.554 212.88" fill="#B97860"/>
<path d="M124.997 437.021L127.48 464.743L135.773 465.094L136.776 451.95L133.718 443.14L124.997 437.021" fill="#00D89E"/>
<path d="M178.686 299.07L181.566 318.531L181.994 337.796H117.17L118.97 322.272L124.092 297.279L178.686 299.07" fill="#00649F"/>
<path d="M179.585 211.917C177.696 209.288 159.414 202.086 159.414 202.086C159.414 202.086 159.173 205.432 157.909 207.418C155.244 211.606 144.811 212.78 141.658 208.93C140.083 207.008 137.279 202.479 137.279 202.479C137.279 202.479 126.189 205.357 121.371 208.405C118.286 210.357 115.819 229.919 117.17 249.065C118.917 273.852 120.767 302.66 120.767 302.66L180.566 301.026L179.527 243.819C179.527 243.819 181.358 214.386 179.585 211.917Z" fill="#00D3A7"/>
<path d="M125.705 457.665C125.705 457.665 120.488 450.419 119.571 410.33C119.484 406.542 124.291 385.326 130.512 383.323C133.831 382.255 139.817 384.961 141.816 387.774C148.511 397.195 137.938 457.665 137.938 457.665H125.705" fill="#00649F"/>
<path d="M156.287 443.097L157.246 465.049L167.373 462.953L167.509 445.933L156.287 443.097Z" fill="#00D89E"/>
<path d="M173.011 386.778C174.885 394.54 174.082 415.327 174.082 415.327L168.433 455.925L154.609 456.616L151.51 403.503C151.51 403.503 153.471 388.766 155.348 385.885C157.13 383.152 171.415 380.167 173.011 386.778" fill="#00649F"/>
<path d="M170.233 459.184C184.355 467.375 184.984 462.807 189.173 466.044C189.829 466.55 190.235 467.497 190.453 468.297C190.659 469.051 189.569 471.514 189.569 471.514L154.883 470.825C154.233 469.74 154.128 466.643 154.258 465.736C154.477 464.2 156.051 458.478 156.051 458.478L156.55 458.489C156.998 458.499 157.424 458.694 157.724 459.027C160.433 462.026 165.02 460.154 166.809 458.754C167.5 458.212 166.404 456.996 168.313 457.251C168.879 457.327 169.764 458.912 170.233 459.184" fill="#004381"/>
<path d="M190.061 470.302C190.061 470.302 189.363 471.18 186.426 471.18C161.778 471.18 154.883 470.825 154.883 470.825L155.643 473.982L188.889 473.877L190.061 470.302" fill="#DCF5F9"/>
<path d="M169.102 461.249C169.547 460.747 170.159 460.322 170.657 460.03C170.906 459.884 171.126 459.769 171.283 459.692C171.362 459.654 171.424 459.624 171.467 459.605L171.53 459.577C171.679 459.513 171.749 459.341 171.685 459.191C171.622 459.042 171.449 458.972 171.3 459.036C171.282 459.047 169.686 459.716 168.663 460.859C168.555 460.98 168.566 461.166 168.687 461.274C168.809 461.381 168.994 461.371 169.103 461.249" fill="#8CEAE7"/>
<path d="M170.827 463.211C171.546 462.819 172.159 462.164 172.606 461.607C173.052 461.049 173.326 460.588 173.331 460.58C173.414 460.441 173.368 460.26 173.228 460.177C173.088 460.094 172.908 460.14 172.825 460.28L172.78 460.352C172.573 460.692 171.602 462.13 170.546 462.694C170.403 462.772 170.35 462.95 170.428 463.093C170.506 463.236 170.684 463.288 170.827 463.211" fill="#8CEAE7"/>
<path d="M173.809 464.324C174.343 463.86 174.673 463.183 174.889 462.621C175.101 462.059 175.19 461.608 175.193 461.597C175.224 461.438 175.12 461.283 174.962 461.252C174.802 461.22 174.648 461.324 174.616 461.483L174.601 461.552C174.564 461.714 174.455 462.144 174.26 462.61C174.067 463.076 173.781 463.575 173.426 463.878C173.302 463.984 173.288 464.17 173.394 464.293C173.5 464.416 173.685 464.43 173.809 464.324" fill="#8CEAE7"/>
<path d="M136.816 460.288L138.573 466.466C138.947 467.781 139.579 469.018 140.436 470.111C140.953 470.772 141.15 471.609 140.977 472.416L139.935 475.099L123.836 475.414L122.839 473.321C122.497 472.602 122.479 471.781 122.789 471.049L123.404 469.596C123.764 468.746 124.733 467.334 124.863 466.428C125.083 464.892 125.78 460.288 125.78 460.288L126.821 460.505C127.268 460.599 127.729 460.484 128.079 460.205C128.765 459.657 130.139 458.845 132.047 459.101C132.613 459.176 133.968 459.917 134.692 460.331C135.003 460.508 135.371 460.567 135.727 460.498L136.816 460.288" fill="#004381"/>
<path d="M141.039 471.942C141.039 471.942 140.001 473.438 139.176 473.455C136.393 473.513 135.503 472.546 131.804 472.546C128.93 472.546 125.756 473.611 124.191 473.668C123.841 473.681 122.723 473.037 122.723 473.037C122.723 473.037 123.811 475.884 124.123 476.139C124.433 476.393 124.847 476.652 125.673 476.652C127.153 476.652 130.429 476.633 131.908 476.652C133.346 476.669 135.515 476.818 138.116 476.652C139.033 476.593 139.718 475.954 139.912 475.513C141.074 472.883 141.039 471.942 141.039 471.942" fill="#DCF5F9"/>
<path d="M127.639 467.922C129.008 467.036 130.399 466.76 131.62 466.759C132.647 466.759 133.55 466.957 134.194 467.156C134.516 467.256 134.772 467.354 134.947 467.428C135.034 467.465 135.101 467.495 135.145 467.516L135.195 467.54L135.209 467.547C135.353 467.621 135.531 467.564 135.605 467.42C135.679 467.276 135.622 467.098 135.478 467.024C135.454 467.013 133.826 466.173 131.62 466.171C130.312 466.171 128.796 466.472 127.32 467.428C127.184 467.516 127.144 467.698 127.233 467.835C127.321 467.971 127.503 468.01 127.639 467.922" fill="#8CEAE7"/>
<path d="M126.808 465.826C128.146 464.861 129.649 464.546 131.054 464.545C132.345 464.544 133.544 464.814 134.418 465.084C134.856 465.22 135.211 465.355 135.456 465.455C135.578 465.506 135.673 465.548 135.737 465.576L135.808 465.61L135.83 465.62C135.976 465.692 136.152 465.632 136.223 465.486C136.295 465.341 136.236 465.164 136.09 465.092C136.068 465.084 133.797 463.959 131.054 463.957C129.564 463.956 127.926 464.294 126.464 465.35C126.332 465.444 126.302 465.628 126.398 465.76C126.492 465.892 126.676 465.921 126.808 465.826" fill="#8CEAE7"/>
<path d="M127.637 463.548C129.031 462.669 130.292 462.388 131.354 462.387C132.363 462.387 133.194 462.644 133.774 462.9C134.063 463.028 134.288 463.156 134.44 463.25C134.515 463.297 134.572 463.336 134.61 463.362L134.651 463.392L134.661 463.399C134.789 463.5 134.974 463.478 135.074 463.349C135.174 463.222 135.151 463.037 135.024 462.937C134.996 462.917 133.574 461.802 131.354 461.799C130.187 461.799 128.804 462.114 127.323 463.051C127.185 463.138 127.144 463.32 127.231 463.457C127.318 463.594 127.5 463.635 127.637 463.548" fill="#8CEAE7"/>
<path d="M122.95 395.339L117.17 337.796L118.97 322.272L151.047 337.796L145.302 384.902L146.477 391.46L141.525 403.503L122.95 395.339" fill="#00649F"/>
<path d="M153.901 391.78L151.047 337.796H181.994L175.242 385.797L176.417 392.354L171.465 404.398L153.901 391.78" fill="#00649F"/>
<path d="M164.669 180.149C164.824 178.652 164.166 177.386 162.63 177.227C161.094 177.068 159.724 178.152 159.568 179.649C159.412 181.146 159.694 182.345 161.23 182.505C162.766 182.664 164.513 181.646 164.669 180.149" fill="#C2866E"/>
<path d="M148.836 198.171C152.449 198.601 159.888 195.236 160.839 189.936L163.407 174.809C164.459 168.945 158.301 163.482 153.963 162.775L151.988 162.57C145.834 161.931 140.45 166.454 140.276 172.409L139.684 187.741C139.525 193.123 145.391 197.76 148.836 198.171" fill="#C2866E"/>
<path d="M137.419 177.651C137.21 179.143 138.555 180.822 140.096 180.914C140.882 180.96 140.638 175.617 140.393 175.534C138.924 175.036 137.628 176.16 137.419 177.651Z" fill="#C2866E"/>
<path d="M139.914 167.645C140.408 166.077 141.313 163.043 144.461 163.144C145.751 162.365 146.293 162.283 147.717 162.047C150.233 161.632 155.328 161.974 157.856 162.8C161.738 164.068 161.785 167.003 161.785 167.003C161.785 167.003 163.564 167.618 163.861 169.907C164.148 172.111 163.368 178.49 163.368 178.49L162.473 180.899L162.111 172.985C160.141 174.279 153.678 175.158 151.002 174.977C147.897 174.767 142.834 172.807 141.072 171.385L139.988 179.867C139.988 179.867 139.079 177.598 138.947 176.799C138.573 174.534 139.181 169.975 139.914 167.645Z" fill="#2E1709"/>
<path d="M125.318 240.601C125.318 240.601 122.182 209.022 121.371 208.405C120.101 207.439 114.332 213.8 112.965 216.347C109.199 223.366 105.457 239.82 104.318 247.013C102.946 255.673 100.737 271.751 103.388 279.295C104.042 281.156 107.978 285.71 107.978 285.71L120.626 263.745L125.318 240.601" fill="#00C18D"/>
<path d="M137.397 285.355H176.546L185.344 229.876H146.196L137.397 285.355" fill="#BDFFD8"/>
<path d="M185.001 267.347L177.749 263.21C177.749 263.21 172.863 261.051 171.816 260.269C171.02 259.673 164.824 255.456 164.622 253.224C164.597 252.946 165.001 251.837 165.001 251.837C165.001 251.837 164.529 250.561 164.266 250.217C163.998 249.865 165.19 249.052 166.607 249.193C166.691 249.202 167.796 249.42 169.092 249.678C171.037 250.066 174.401 249.733 174.401 249.733C174.401 249.733 172.2 248.452 170.286 248.115C169.275 247.938 166.946 247.885 166.266 246.966C166.079 246.712 166.262 245.481 167.933 245.157C169.398 244.872 177.191 245.904 182.01 246.976C182.606 247.108 183.154 243.584 183.154 243.584C184.636 243.584 186.961 246.024 187.674 247.062C189.267 249.382 190.977 258.999 190.977 258.999L185.001 267.347" fill="#C2866E"/>
<path d="M178.754 265.129L191.323 256.458C191.323 256.458 201.774 265.424 201.8 269.632C201.812 271.481 199.124 275.27 197.273 276.451C196.036 277.241 192.799 277.877 191.459 277.53C186.728 276.307 178.754 265.129 178.754 265.129" fill="#00C18D"/>
<path d="M136.127 269.533L148.159 268.351C148.159 268.351 152.187 267.744 153.233 266.961C154.03 266.366 160.225 262.148 160.427 259.917C160.453 259.639 160.048 258.53 160.048 258.53C160.048 258.53 160.52 257.253 160.784 256.909C161.052 256.558 159.859 255.745 158.443 255.886C158.359 255.894 157.254 256.112 155.958 256.371C154.013 256.759 150.649 256.425 150.649 256.425C150.649 256.425 152.901 255.452 154.816 255.116C155.827 254.938 158.156 254.886 158.836 253.966C159.023 253.713 158.84 252.482 157.169 252.158C155.704 251.873 147.749 252.187 143.04 253.668C142.692 253.778 142.361 253.467 142.442 253.112L142.886 251.162C140.179 251.312 139.591 253.027 138.817 253.995C137.061 256.195 130.152 261.185 130.152 261.185L136.127 269.533" fill="#C2866E"/>
<path d="M140.766 271.113L130.152 258.932L119.845 264.139L107.978 276.744C107.978 276.744 107.036 284.848 107.978 285.71C109.075 286.714 114.974 287.079 117.17 286.382C123.866 284.253 140.766 271.113 140.766 271.113Z" fill="#00C18D"/>
<path d="M371.524 353.773C370.97 350.661 368.319 351.019 364.774 350.843C361.294 350.671 355.213 349.983 351.949 351.203C350.317 351.814 347.696 356.045 347.619 356.151L346.546 358.575C346.546 358.575 347.639 359.382 347.944 358.774C349.089 356.486 350.824 355.423 350.824 355.423L346.887 359.613C346.887 359.613 347.497 360.285 348.476 360.219C349.311 360.163 350.153 359.232 350.68 358.774C351.657 357.925 353.519 356.179 353.519 356.179L350.571 361.988C350.479 362.177 350.62 362.396 350.829 362.387C351.304 362.368 351.963 362.263 352.304 362.045C352.732 361.771 355.003 359.419 355.593 358.029C355.748 357.665 357.624 356.865 358.453 356.766C359.13 356.687 360.756 358.045 358.317 358.238C357.596 358.295 356.392 358.02 355.698 358.682C355.562 358.812 355.153 359.31 355.519 359.563C355.876 359.812 356.921 360.288 357.752 360.364C359.067 360.484 360.232 360.441 360.711 360.496C364.045 360.882 365.155 359.489 366.346 359.021C370.637 357.333 371.827 355.477 371.524 353.773" fill="#FFD0CE"/>
<path d="M395.295 307.008C393.521 312.346 389.617 336.231 389.617 336.231C389.617 336.231 389.217 339.704 371.02 344.354C369.975 344.621 369.62 346.262 369.213 347.342C369.151 347.507 367.119 348.372 366.635 348.801C365.584 349.734 369.673 358.705 369.673 358.705L372.045 358.111C372.045 358.111 372.889 358.941 373.995 359.136C381.828 360.513 399.508 348.617 404.743 345.571C405.637 345.051 404.757 344.565 405.247 342.569C408.46 329.495 405.274 316.051 407.506 303.123C407.848 301.144 404.171 297.736 402.802 297.979C398.895 298.67 397.276 301.051 395.295 307.008" fill="#00D0BC"/>
<path d="M401.238 253.526C406.062 256.599 409.197 263.647 406.576 268.56C404.309 272.81 390.642 276.382 389.645 276.63C380.286 278.96 379.224 268.119 380.424 263.147C382.443 254.786 392.238 247.79 401.238 253.526" fill="#0050B2"/>
<path d="M416.255 301.774C412.037 303.728 403.105 301.879 400.464 300.081C400.464 300.081 402.095 292.515 403.052 291.712C409.317 286.46 409.195 287.329 419.215 287.123C420.402 287.098 422.368 291.862 422.368 291.862C422.433 292.221 419.966 300.054 416.255 301.774Z" fill="#FFC6C3"/>
<path d="M405.171 271.25L399.122 282.81C398.868 282.896 398.731 283.173 398.818 283.427L403.501 293.999C404.458 296.823 405.785 296.441 408.609 295.483C411.432 294.526 413.656 291.218 412.698 288.394L405.789 271.554C405.702 271.3 405.426 271.163 405.171 271.25" fill="#FFC6C3"/>
<path d="M406.002 272.142L407.021 265.777C407.021 265.777 411.495 272.128 413.949 277.01C417.955 284.979 418.636 291.688 415.009 298.331C411.674 304.44 413.522 302.487 413.372 302.506C413.372 302.506 408.794 301.542 409.183 297.541C410.192 287.177 409.818 285.509 409.552 282.237C409.179 277.637 406.002 272.142 406.002 272.142" fill="#0050B2"/>
<path d="M407.552 269.443C407.756 270.803 406.829 272.069 405.481 272.271C404.134 272.473 402.877 271.533 402.673 270.172C402.47 268.812 403.397 267.546 404.744 267.344C406.092 267.143 407.349 268.082 407.552 269.443" fill="#FFC6C3"/>
<path d="M384.617 276.947C386.908 285.124 394.258 289.131 397.328 287.631C403.737 284.5 406.822 278.428 404.531 270.251C402.24 262.073 396.171 257.742 390.585 259.307C384.999 260.872 382.327 268.77 384.617 276.947Z" fill="#FFD0CE"/>
<path d="M395.819 255.354C403.354 256.477 404.853 266.879 404.744 267.344C404.571 268.084 403.594 268.803 403.157 268.773C395.433 268.241 385.301 264.783 385.301 264.783C385.301 264.783 380.16 272.324 389.409 289.36C389.409 289.36 383.859 283.597 381.324 274.384C378.116 262.725 384.884 253.724 395.819 255.354Z" fill="#0050B2"/>
<path d="M352.455 431.943L352.556 462.058L357.583 464.621L362.061 463.095C362.061 463.095 362.149 455.603 362.88 450.598C363.63 445.466 365.613 433.139 365.613 433.139L352.455 431.943Z" fill="#FFD0CE"/>
<path d="M375.317 435.727L376.776 472.889L385.346 475.518C385.346 475.518 387.602 459.175 388.096 454.175C388.409 450.996 389.24 435.834 389.24 435.834L375.317 435.727" fill="#FFD0CE"/>
<path d="M402.492 338.519L439.033 342.242C439.033 342.242 441.842 361.06 442.329 371.791C442.643 378.686 435.294 386.982 404.306 394.422C399.892 395.481 396.417 398.507 396.423 400.795C396.489 426.1 390.672 452.682 390.672 452.682L378.98 454.96L374.421 452.556C374.421 452.556 374.221 419.808 372.339 409.25C369.839 395.221 371.08 403.217 370.174 411.017C369.232 419.123 367.34 439.971 367.34 439.971L354.471 440.64L351.538 439.17C351.538 439.17 349.752 400.54 349.541 387.103C349.274 370.111 396.86 354.088 396.86 354.088C399.588 345.897 402.492 338.519 402.492 338.519" fill="#004381"/>
<path d="M398.163 302.254C398.731 299.859 401.751 293.685 401.751 293.685L403.492 295.038L414.839 286.498C414.839 286.498 426.216 288.882 429.596 291.135C437.865 296.649 437.751 305.837 438.876 312.901C439.326 315.727 441.66 326.771 440.894 338.036C440.679 341.187 440.988 347.235 438.476 348.433C430.166 352.398 403.16 349.245 400.577 343.53C399.207 340.498 403.165 329.272 401.46 324.853C400.584 322.585 398.312 318.963 397.287 316.759C395.133 312.127 397.541 304.879 398.163 302.254" fill="#34EABE"/>
<path d="M365.2 486.48L373.899 487.067C375.068 487.146 376.224 486.775 377.129 486.031L382.305 481.773L386.005 480.378L385.997 479.204C386.438 477.132 385.924 473.381 385.924 473.381C385.924 473.381 383.717 475.097 380.743 472.76C379.098 471.468 377.447 471.764 375.651 472.836L374.235 475.431L365.903 483.255C365.467 483.664 365.218 484.235 365.213 484.833L365.2 486.48" fill="#004381"/>
<path d="M399.009 296.493L401.799 292.653L403.685 294.886L400.909 300.082L399.009 296.493Z" fill="#00D0BC"/>
<path d="M403.493 295.038L406.185 300.764C410.576 297.889 422.405 287.225 422.405 287.225L415.611 285.064L403.493 295.038Z" fill="#00D0BC"/>
<path d="M363.044 464.644L362.361 461.626L360.305 462.379C358.489 463.044 356.456 462.685 354.977 461.439L352.238 459.13L344.832 466.033C344.395 466.44 343.891 466.768 343.341 467.001L338.003 469.269C336.853 469.758 335.989 470.73 335.632 471.908C335.551 472.175 335.755 472.446 336.034 472.449L347.379 472.537C347.832 472.54 348.282 472.452 348.7 472.277L354.914 469.705L355.215 471.075L362.232 471.129C362.232 471.129 362.449 470.276 362.59 469.654C362.67 469.297 363.206 468.135 363.206 468.135C363.361 466.947 363.308 465.812 363.044 464.644Z" fill="#004381"/>
<path d="M411.369 273.009C421.541 286.731 417.301 305.746 417.301 305.746L406.417 306.379C406.417 306.379 411.768 294.534 408.96 278.538C408.162 273.993 408.115 268.619 411.369 273.009" fill="#0050B2"/>
<path d="M369.571 383.394L355.379 351.004L323.007 343.543L338.722 373.012L369.571 383.394" fill="#EA659D"/>
<path d="M369.571 383.394L398.139 367.707L365.034 357.378L359.589 360.613" fill="#EA659D"/>
<path d="M369.28 382.73L395.151 368.655L395.093 367.787L365.173 358.117L359.839 361.182" fill="#DCF5F9"/>
<path d="M382.595 360.249C382.657 360.135 384.351 357.064 385.895 356.256C388.982 354.64 395.895 353.809 399.37 353.548C402.909 353.283 408.906 350.81 409.841 353.829C410.354 355.483 405.235 361.053 403.87 361.765C402.006 362.739 398.049 362.84 396.167 363.779C395.066 364.329 393.461 365.387 392.613 366.279C392.329 366.579 391.725 367.23 391.319 367.307C391.151 367.338 390.655 367.135 390.655 367.135C390.655 367.135 389.929 368.525 389.511 368.81C389.118 369.078 387.657 369.233 387.657 369.233L389.475 361.549L387.074 364.778C387.074 364.778 386.172 367.274 385.545 367.852C384.826 368.518 384 368.068 384 368.068L385.848 359.737C385.848 359.737 383.032 363.522 381.711 363.885C381.124 364.046 380.066 363.812 380.066 363.812L382.595 360.249" fill="#FFD0CE"/>
<path d="M422.488 305.317C421.629 313.295 426.069 333.407 426.069 333.407C426.069 333.407 419.697 340.936 404.578 347.094C403.579 347.501 403.231 348.583 402.791 349.651C402.723 349.813 400.469 350.974 400.308 351.718C399.761 354.229 403.948 361.316 406.492 361.676C406.921 361.737 408.372 360.806 408.372 360.806C408.372 360.806 409.842 361.327 410.874 360.884C425.002 354.824 437.665 348.903 442.382 340.23C442.663 339.713 442.65 338.477 442.624 337.889C442.252 329.525 440.532 314.795 439.036 305.565C438.479 302.133 435.701 292.259 430.8 292.253C425.079 292.247 423.16 299.076 422.488 305.317" fill="#00D0BC"/>
</g>
<defs>
<clipPath id="clip0">
<rect width="500" height="500" fill="white"/>
</clipPath>
</defs>
</svg>
