<svg width="500" height="500" viewBox="0 0 500 500" fill="none" xmlns="http://www.w3.org/2000/svg">
<path fill-rule="evenodd" clip-rule="evenodd" d="M321.942 320.27C291.189 342.613 239.524 333.955 217.008 302.964C194.493 271.974 182.701 151.044 182.701 151.044C182.701 151.044 299.611 185.769 327.432 216.422C355.253 247.075 352.695 297.926 321.942 320.27Z" fill="#80D25B"/>
<path d="M207.211 179.688C207.211 179.688 278.415 223.819 304.308 305.1C310.971 326.013 320.995 340.934 332.211 351.562" stroke="#22BA8E" stroke-width="2" stroke-linecap="round"/>
<path d="M246.274 289.062L293.657 286.836L316.586 242.188" stroke="#22BA8E" stroke-width="2" stroke-linecap="round"/>
<path d="M230.649 242.188L266.125 235.914L277.524 210.938" stroke="#22BA8E" stroke-width="2" stroke-linecap="round"/>
<path d="M337.045 432.367C360.918 422.489 382.402 408.023 400.392 390.071C435.737 354.803 457.598 306.079 457.598 252.261C457.598 225.836 452.328 200.64 442.779 177.661M337.045 72.1545C314.017 62.6261 288.767 57.3672 262.285 57.3672C213.928 57.3672 169.675 74.9037 135.565 103.951C124.937 113.002 115.293 123.171 106.817 134.275L337.045 72.1545ZM66.9728 252.261C66.9728 306.079 88.8339 354.803 124.178 390.071C142.169 408.023 163.653 422.489 187.525 432.367L66.9728 252.261Z" stroke="#5EA7FF" stroke-width="4" stroke-linecap="round"/>
<path fill-rule="evenodd" clip-rule="evenodd" d="M434.747 122.362L312.501 119.3L363.849 22.7272L434.747 122.362Z" fill="#B4DFFB"/>
<path fill-rule="evenodd" clip-rule="evenodd" d="M264.153 446.522L355.647 365.389L383.955 471.037L264.153 446.522Z" fill="#B4DFFB"/>
<path fill-rule="evenodd" clip-rule="evenodd" d="M66.9766 166.742L121.664 276.117H12.2891L66.9766 166.742Z" fill="#B4DFFB"/>
</svg>
